<svg width="23" height="23" viewBox="0 0 23 23" fill="none" xmlns="http://www.w3.org/2000/svg">
    <path d="M3.85425 2.79375C5.83425 1.05975 8.418 0 11.25 0C17.4533 0 22.5 5.04675 22.5 11.25C22.5 14.082 21.4403 16.6658 19.7062 18.6458L16.2308 15.1702C17.289 14.5065 17.9993 13.338 17.9993 12V10.5C17.9993 8.43225 16.317 6.75 14.2493 6.75H12.7493C12.5503 6.75 12.3596 6.82902 12.2189 6.96967C12.0783 7.11032 11.9993 7.30109 11.9993 7.5V10.9395L3.85425 2.79375ZM16.5 12V10.5C16.5 9.2595 15.4905 8.25 14.25 8.25H13.5V12.4395L15.1305 14.07C15.5364 13.897 15.8825 13.6086 16.126 13.2406C16.3695 12.8726 16.4995 12.4412 16.5 12ZM8.067 12L7.5 10.11L6.933 12H8.067ZM14.649 15.7095C14.5162 15.7237 14.3865 15.75 14.25 15.75H12.75C12.5511 15.75 12.3603 15.671 12.2197 15.5303C12.079 15.3897 12 15.1989 12 15V13.0605L9.0735 10.134L10.4685 14.7847C10.5256 14.9754 10.5046 15.1809 10.4102 15.3561C10.3157 15.5313 10.1555 15.6618 9.96488 15.7189C9.77422 15.776 9.56869 15.755 9.39351 15.6605C9.21833 15.5661 9.08784 15.4059 9.03075 15.2153L8.51625 13.5H6.54L5.961 15.237C5.89665 15.4211 5.76311 15.5729 5.5887 15.6602C5.41429 15.7475 5.21273 15.7635 5.02677 15.7046C4.84081 15.6458 4.68509 15.5168 4.59263 15.3451C4.50016 15.1734 4.47824 14.9724 4.5315 14.7847L6.6525 7.71375L2.79375 3.85425C1.05975 5.83425 0 8.418 0 11.25C0 17.4533 5.04675 22.5 11.25 22.5C14.082 22.5 16.6658 21.4403 18.6458 19.7062L14.649 15.7095Z" fill="#EFEFEF"/>
</svg>
