<svg width="60" height="60" viewBox="0 0 60 60" fill="none" xmlns="http://www.w3.org/2000/svg">
    <path d="M38.4868 28.4805C42.112 28.4805 45.0508 25.5417 45.0508 21.9165C45.0508 18.2913 42.112 15.3525 38.4868 15.3525C34.8617 15.3525 31.9229 18.2913 31.9229 21.9165C31.9229 25.5417 34.8617 28.4805 38.4868 28.4805Z" fill="#FDD96F"/>
    <path d="M13.0991 41.0562L19.4291 53.3484C19.8457 54.1279 20.5521 54.7123 21.3959 54.9754C22.2396 55.2385 23.153 55.1592 23.9388 54.7546C24.7246 54.3499 25.3197 53.6525 25.5956 52.8128C25.8715 51.9732 25.8061 51.0587 25.4135 50.2668L19.0835 37.9746L13.0991 41.0562Z" fill="#304651"/>
    <path d="M46.5275 38.745L29.6159 5.9082C26.9705 15.6576 18.8183 22.5756 12.8057 25.7862L7.60553 28.464C3.43553 30.612 1.79633 35.7324 3.94373 39.9024C6.09113 44.0724 11.2121 45.7116 15.3815 43.5642L20.5817 40.8858C26.6879 37.8558 37.0541 35.2368 46.5275 38.745Z" fill="#E6E7E8"/>
    <path d="M7.60601 28.4639C3.43601 30.6113 1.79681 35.7323 3.94421 39.9023C6.09161 44.0723 11.2126 45.7115 15.382 43.5641L20.5822 40.8857L12.8062 25.7861L7.60601 28.4639ZM29.2378 5.17194C29.5583 5.008 29.9307 4.97757 30.2736 5.08729C30.6165 5.19701 30.902 5.43798 31.0678 5.75754L47.3326 37.3415C47.6746 38.0057 47.4112 38.8295 46.747 39.1715C46.0828 39.5135 45.259 39.2495 44.917 38.5853L28.651 7.00134C28.4871 6.68075 28.4568 6.30831 28.5666 5.96542C28.6764 5.62252 28.9175 5.33704 29.2372 5.17134L29.2378 5.17194Z" fill="#DB584D"/>
    <path d="M21.6479 43.1525L23.1161 42.3965L25.2485 46.5365L23.7809 47.2925L21.6479 43.1525Z" fill="#293B44"/>
    <path d="M43.428 12.8361C43.326 12.889 43.21 12.909 43.0962 12.8932C42.9823 12.8774 42.8762 12.8266 42.7924 12.7479C42.7086 12.6692 42.6514 12.5665 42.6285 12.4538C42.6057 12.3412 42.6183 12.2242 42.6648 12.1191L45.723 5.1591C45.7823 5.02424 45.8927 4.91844 46.03 4.865C46.1672 4.81155 46.3201 4.81482 46.455 4.8741C46.5899 4.93337 46.6956 5.0438 46.7491 5.18107C46.8025 5.31835 46.7993 5.47124 46.74 5.6061L43.6824 12.5661C43.6314 12.6826 43.5411 12.778 43.428 12.8361ZM54.4818 14.3043L47.7234 17.7843C47.6585 17.8177 47.5878 17.8379 47.5151 17.844C47.4424 17.85 47.3692 17.8416 47.2998 17.8193C47.2303 17.7971 47.166 17.7614 47.1103 17.7142C47.0547 17.6671 47.0089 17.6094 46.9755 17.5446C46.9421 17.4798 46.9219 17.409 46.9158 17.3363C46.9098 17.2636 46.9182 17.1905 46.9404 17.121C46.9627 17.0516 46.9984 16.9872 47.0456 16.9315C47.0927 16.8759 47.1503 16.8301 47.2152 16.7967L53.9736 13.3167C54.1045 13.2493 54.2568 13.2367 54.397 13.2816C54.5372 13.3265 54.6538 13.4252 54.7212 13.5561C54.7886 13.687 54.8012 13.8393 54.7563 13.9795C54.7114 14.1197 54.6127 14.2369 54.4818 14.3043ZM56.6988 25.7079C56.5856 25.7665 56.4557 25.784 56.331 25.7577L48.8892 24.2043C48.7451 24.1741 48.6189 24.088 48.5383 23.9648C48.4578 23.8416 48.4294 23.6914 48.4596 23.5473C48.4897 23.4032 48.5759 23.277 48.6991 23.1964C48.8223 23.1159 48.9725 23.0875 49.1166 23.1177L56.5578 24.6705C56.6703 24.6937 56.7728 24.7513 56.8512 24.8353C56.9296 24.9192 56.98 25.0255 56.9955 25.1393C57.011 25.2531 56.9908 25.3689 56.9376 25.4708C56.8845 25.5726 56.801 25.6555 56.6988 25.7079Z" fill="#E6E7E8"/>
</svg>
