<svg width="24" height="24" viewBox="0 0 24 24" fill="none" xmlns="http://www.w3.org/2000/svg">
    <g clip-path="url(#clip0_176_1637)">
        <path d="M18.6666 24H5.33332C3.90883 24 2.56952 23.4452 1.56212 22.4378C0.554771 21.4306 0 20.0912 0 18.6666V17.3332C0 16.5968 0.596923 15.9999 1.33334 15.9999C2.06976 15.9999 2.66668 16.5968 2.66668 17.3332V18.6666C2.66668 19.3789 2.94409 20.0486 3.44767 20.5522C3.9514 21.0559 4.62103 21.3333 5.33332 21.3333H18.6666C19.3789 21.3333 20.0485 21.0559 20.5522 20.5522C21.0559 20.0485 21.3333 19.3788 21.3333 18.6666V17.3332C21.3333 16.5968 21.9302 15.9999 22.6666 15.9999C23.403 15.9999 24 16.5968 24 17.3332V18.6666C24 20.0911 23.4452 21.4304 22.4378 22.4378C21.4304 23.4452 20.0911 24 18.6666 24ZM12 18.6666C11.6518 18.667 11.3174 18.5309 11.0685 18.2874L11.0684 18.2873L11.0658 18.2847L11.065 18.2839C11.0643 18.2833 11.0637 18.2826 11.063 18.2819L11.0616 18.2805C11.0611 18.28 11.0606 18.2795 11.0601 18.2791L11.0572 18.2762L5.72386 12.9428C5.20318 12.4221 5.20318 11.5779 5.72386 11.0571C6.24454 10.5365 7.08883 10.5364 7.6095 11.0571L10.6667 14.1143V1.33334C10.6666 0.596923 11.2636 0 12 0C12.7364 0 13.3334 0.596923 13.3334 1.33334V14.1143L16.3905 11.0571C16.9111 10.5365 17.7555 10.5365 18.2761 11.0571C18.7968 11.5778 18.7968 12.4221 18.2761 12.9428L12.9428 18.2761L12.9399 18.279L12.9384 18.2804L12.937 18.2818C12.9364 18.2825 12.9356 18.2832 12.935 18.2838L12.9342 18.2846C12.9334 18.2855 12.9325 18.2863 12.9316 18.2872L12.9315 18.2873C12.9168 18.3016 12.902 18.3154 12.8868 18.329C12.7779 18.4262 12.6538 18.5048 12.5193 18.5616L12.518 18.5622C12.5175 18.5624 12.5171 18.5626 12.5166 18.5628C12.353 18.6315 12.1774 18.6668 12 18.6666Z" fill="#EDEDED"/>
    </g>
    <defs>
        <clipPath id="clip0_176_1637">
            <rect width="24" height="24" fill="white"/>
        </clipPath>
    </defs>
</svg>
