<svg width="24" height="24" viewBox="0 0 24 24" fill="none" xmlns="http://www.w3.org/2000/svg">
    <path fill-rule="evenodd" clip-rule="evenodd" d="M4.45121 15.8408C4.70582 15.8408 4.95 15.942 5.13003 16.122C5.31007 16.302 5.41121 16.5462 5.41121 16.8008V18.7208C5.41121 18.9754 5.51235 19.2196 5.69239 19.3996C5.87242 19.5797 6.1166 19.6808 6.37121 19.6808H17.8912C18.1458 19.6808 18.39 19.5797 18.57 19.3996C18.7501 19.2196 18.8512 18.9754 18.8512 18.7208V16.8008C18.8512 16.5462 18.9524 16.302 19.1324 16.122C19.3124 15.942 19.5566 15.8408 19.8112 15.8408C20.0658 15.8408 20.31 15.942 20.49 16.122C20.6701 16.302 20.7712 16.5462 20.7712 16.8008V18.7208C20.7712 19.4846 20.4678 20.2172 19.9277 20.7573C19.3876 21.2974 18.655 21.6008 17.8912 21.6008H6.37121C5.60739 21.6008 4.87485 21.2974 4.33474 20.7573C3.79464 20.2172 3.49121 19.4846 3.49121 18.7208V16.8008C3.49121 16.5462 3.59235 16.302 3.77239 16.122C3.95242 15.942 4.1966 15.8408 4.45121 15.8408Z" fill="#DBBA8F"/>
    <path fill-rule="evenodd" clip-rule="evenodd" d="M6.65217 10.3614C6.83219 10.1815 7.07633 10.0804 7.33089 10.0804C7.58545 10.0804 7.82958 10.1815 8.00961 10.3614L12.1309 14.4827L16.2522 10.3614C16.3407 10.2697 16.4467 10.1966 16.5638 10.1463C16.6809 10.096 16.8069 10.0695 16.9343 10.0684C17.0618 10.0673 17.1882 10.0916 17.3062 10.1398C17.4242 10.1881 17.5314 10.2594 17.6215 10.3495C17.7116 10.4397 17.7829 10.5469 17.8312 10.6648C17.8795 10.7828 17.9038 10.9092 17.9026 11.0367C17.9015 11.1642 17.8751 11.2901 17.8247 11.4073C17.7744 11.5244 17.7013 11.6303 17.6096 11.7189L12.8096 16.5189C12.6296 16.6988 12.3854 16.8 12.1309 16.8C11.8763 16.8 11.6322 16.6988 11.4522 16.5189L6.65217 11.7189C6.4722 11.5388 6.37109 11.2947 6.37109 11.0402C6.37109 10.7856 6.4722 10.5415 6.65217 10.3614Z" fill="#DBBA8F"/>
    <path fill-rule="evenodd" clip-rule="evenodd" d="M12.1309 3.36035C12.3855 3.36035 12.6297 3.46149 12.8097 3.64153C12.9898 3.82156 13.0909 4.06574 13.0909 4.32035V15.8404C13.0909 16.095 12.9898 16.3391 12.8097 16.5192C12.6297 16.6992 12.3855 16.8004 12.1309 16.8004C11.8763 16.8004 11.6321 16.6992 11.4521 16.5192C11.272 16.3391 11.1709 16.095 11.1709 15.8404V4.32035C11.1709 4.06574 11.272 3.82156 11.4521 3.64153C11.6321 3.46149 11.8763 3.36035 12.1309 3.36035Z" fill="#DBBA8F"/>
</svg>
