<svg width="20" height="20" viewBox="0 0 20 20" fill="none" xmlns="http://www.w3.org/2000/svg">
    <path d="M4.16616 12.5C4.16552 12.3903 4.18654 12.2816 4.22801 12.1801C4.26948 12.0786 4.33059 11.9862 4.40782 11.9083L9.40782 6.90834C9.56396 6.75313 9.77517 6.66602 9.99532 6.66602C10.2155 6.66602 10.4267 6.75313 10.5828 6.90834L15.5828 11.9083C15.7193 12.0678 15.7907 12.2728 15.7826 12.4826C15.7745 12.6923 15.6875 12.8912 15.5391 13.0396C15.3907 13.1881 15.1918 13.275 14.982 13.2831C14.7723 13.2912 14.5672 13.2199 14.4078 13.0833L9.99949 8.67501L5.59115 13.0833C5.4751 13.2004 5.32694 13.2803 5.16543 13.3132C5.00392 13.346 4.83631 13.3302 4.68378 13.2677C4.53125 13.2053 4.40066 13.099 4.30853 12.9624C4.21639 12.8257 4.16685 12.6648 4.16616 12.5Z" fill="white"/>
</svg>
