<svg width="20" height="20" viewBox="0 0 20 20" fill="none" xmlns="http://www.w3.org/2000/svg">
    <g clip-path="url(#clip0_267_3653)">
        <path fill-rule="evenodd" clip-rule="evenodd" d="M11.1629 1.10331C10.8012 0.925479 10.4035 0.833008 10.0004 0.833008C9.59737 0.833008 9.19967 0.925479 8.83794 1.10331L1.54461 4.69497C0.597109 5.16164 0.597109 6.5058 1.54461 6.97247L8.83794 10.5633C9.19965 10.7412 9.59736 10.8337 10.0004 10.8337C10.4035 10.8337 10.8012 10.7412 11.1629 10.5633L18.4563 6.97164C19.4038 6.50497 19.4038 5.1608 18.4563 4.69414L11.1629 1.10331ZM1.58628 8.84164C1.64356 8.81341 1.70658 8.79873 1.77044 8.79873C1.83431 8.79873 1.89732 8.81341 1.95461 8.84164L8.83794 12.2308C9.19967 12.4086 9.59737 12.5011 10.0004 12.5011C10.4035 12.5011 10.8012 12.4086 11.1629 12.2308L18.0463 8.84164C18.1036 8.81341 18.1666 8.79873 18.2304 8.79873C18.2943 8.79873 18.3573 8.81341 18.4146 8.84164L18.4563 8.86164C19.4038 9.3283 19.4038 10.6733 18.4563 11.1391L11.1629 14.7308C10.8012 14.9086 10.4035 15.0011 10.0004 15.0011C9.59737 15.0011 9.19967 14.9086 8.83794 14.7308L1.54461 11.1391C0.597109 10.6725 0.597109 9.3283 1.54461 8.86164L1.58628 8.84164ZM1.95461 13.0083C1.89732 12.9801 1.83431 12.9654 1.77044 12.9654C1.70658 12.9654 1.64356 12.9801 1.58628 13.0083L1.54461 13.0291C0.597109 13.4958 0.597109 14.84 1.54461 15.3066L8.83794 18.8975C9.19967 19.0753 9.59737 19.1678 10.0004 19.1678C10.4035 19.1678 10.8012 19.0753 11.1629 18.8975L18.4563 15.3058C19.4038 14.8391 19.4038 13.495 18.4563 13.0283L18.4146 13.0083C18.3573 12.9801 18.2943 12.9654 18.2304 12.9654C18.1666 12.9654 18.1036 12.9801 18.0463 13.0083L11.1629 16.3975C10.8012 16.5753 10.4035 16.6678 10.0004 16.6678C9.59737 16.6678 9.19967 16.5753 8.83794 16.3975L1.95461 13.0083Z" fill="#E2E2E2"/>
    </g>
    <defs>
        <clipPath id="clip0_267_3653">
            <rect width="20" height="20" fill="white"/>
        </clipPath>
    </defs>
</svg>
