<svg width="20" height="20" viewBox="0 0 20 20" fill="none" xmlns="http://www.w3.org/2000/svg">
    <path d="M9.72009 12.6113C9.27009 12.6113 8.97009 12.3113 8.97009 11.8613C9.04509 10.8863 9.57009 10.0613 10.3201 9.46133C10.7701 9.01133 11.2201 8.56133 11.2201 8.11133C11.2201 7.28633 10.5451 6.61133 9.72009 6.61133C8.89509 6.61133 8.22009 7.28633 8.22009 8.11133C8.22009 8.56133 7.92009 8.86133 7.47009 8.86133C7.02009 8.86133 6.72009 8.56133 6.72009 8.11133C6.72009 6.46133 8.07009 5.11133 9.72009 5.11133C11.3701 5.11133 12.7201 6.46133 12.7201 8.11133C12.6451 9.08633 12.1201 9.91133 11.3701 10.5113C10.9201 10.9613 10.4701 11.4113 10.4701 11.8613C10.4701 12.3113 10.1701 12.6113 9.72009 12.6113Z" fill="#DBBA8F"/>
    <path d="M9.72009 14.8613C10.1343 14.8613 10.4701 14.5255 10.4701 14.1113C10.4701 13.6971 10.1343 13.3613 9.72009 13.3613C9.30588 13.3613 8.97009 13.6971 8.97009 14.1113C8.97009 14.5255 9.30588 14.8613 9.72009 14.8613Z" fill="#DBBA8F"/>
    <path d="M1.0201 19.2118C0.795104 19.0618 0.720104 18.7618 0.720104 18.4618L1.3951 14.6368C-1.3799 10.0618 0.120104 4.06178 4.6951 1.36178C9.2701 -1.33822 15.2701 0.0867831 18.0451 4.66178C20.8201 9.23678 19.3201 15.2368 14.7451 18.0118C11.7451 19.8118 7.9201 19.8868 4.9201 18.0868L1.8451 19.3618C1.4701 19.4368 1.2451 19.3618 1.0201 19.2118ZM4.9201 16.5118C5.0701 16.5118 5.2201 16.5868 5.2951 16.6618C9.1951 19.1368 14.2951 17.9368 16.6951 14.1118C19.0951 10.2868 17.9701 5.11178 14.1451 2.71178C10.3201 0.311783 5.2201 1.28678 2.7451 5.18678C1.0201 7.88678 1.0201 11.4118 2.7451 14.1118C2.8201 14.2618 2.8951 14.4868 2.8201 14.6368L2.3701 17.4118L4.5451 16.5118H4.9201Z" fill="#DBBA8F"/>
</svg>
