<svg width="14" height="14" viewBox="0 0 14 14" fill="none" xmlns="http://www.w3.org/2000/svg">
    <path d="M3.84342 12.7349C3.20083 12.0046 2.55826 11.2452 2.14932 10.3398C1.74042 9.37589 1.62357 8.26598 1.82804 7.21448C2.03251 6.16298 2.49982 5.16988 3.17164 4.32285C3.11323 5.05307 3.3761 5.81247 3.87264 6.36744C3.58054 4.96544 4.04789 3.4466 4.98254 2.33669C5.9172 1.22678 7.20239 0.496533 8.54596 0C7.87417 0.701001 7.78655 1.81091 8.04942 2.7456C8.3123 3.68025 8.86727 4.4981 9.3638 5.34513C9.86033 6.19217 10.3277 7.06842 10.3569 8.03229C10.6198 7.53576 10.9119 7.0392 11.0871 6.48426C11.2624 5.92929 11.35 5.34513 11.204 4.79016C11.7297 5.43276 12.0218 6.07532 12.1678 6.89317C12.3139 7.71101 12.2847 8.55804 12.197 9.37589C12.0802 10.2814 11.8465 11.216 11.35 11.9754C10.7659 12.8809 9.83117 13.5235 8.80889 13.874C6.99792 14.1953 5.2162 13.9324 3.84342 12.7349Z" fill="#F3705A"/>
    <path d="M6.06308 13.8158C8.45815 14.7505 10.824 11.9173 9.50965 9.72668C9.50965 9.69746 9.48044 9.69746 9.48044 9.66827C9.59728 10.8658 9.30519 11.7421 8.75022 12.2386C9.04231 11.5376 8.83784 10.7198 8.48734 10.0188C8.13684 9.34699 7.64031 8.73361 7.26059 8.09102C6.88087 7.41924 6.58881 6.6598 6.76406 5.90039C6.06306 6.42614 5.56652 7.21477 5.36206 8.0618C5.15759 8.90883 5.27443 9.84352 5.65415 10.6321C5.21602 10.3109 4.89474 9.78511 4.86552 9.23014C4.39818 9.78511 4.10611 10.5153 4.1353 11.2455C4.13533 12.3846 5.04077 13.4069 6.06308 13.8158Z" fill="#FFD15C"/>
</svg>
