<svg width="24" height="20" viewBox="0 0 24 20" fill="none" xmlns="http://www.w3.org/2000/svg">
    <path d="M23.0476 0H0.952436C0.426401 0 0 0.426401 0 0.952436V18.204C0 18.73 0.426401 19.1565 0.952436 19.1565H23.0476C23.5736 19.1565 24.0001 18.7301 24.0001 18.204V0.952436C24 0.426401 23.5735 0 23.0476 0ZM4.67685 12.954H2.79066V14.2253H4.48064V14.6232H2.79066V16.1734H2.37758V12.5561H4.67693L4.67685 12.954ZM8.24276 14.6851C8.24276 15.6256 7.67431 16.1942 6.72857 16.1942C5.7777 16.1942 5.20421 15.6256 5.20421 14.6851V12.5561H5.61763V14.6851C5.61763 15.3879 6.04114 15.7963 6.72857 15.7963C7.41592 15.7963 7.82934 15.3879 7.82934 14.6851V12.5561H8.24276V14.6851ZM11.2558 16.1734H9.2558V12.5561H9.66922V15.781H11.2558V16.1734ZM13.9276 16.1734H11.9277V12.5561H12.341V15.781H13.9276V16.1734ZM17.7517 16.1734H16.8317V14.7679H15.3334V16.1734H14.4134V12.5561H15.3334V14.0444H16.8317V12.5561H17.7517V16.1734ZM19.9948 16.1734H18.4754V14.0897H19.3953V15.4399H20.0517C20.6148 15.4399 21.0181 15.0055 21.0181 14.3701C21.0181 13.7289 20.5942 13.29 20.0103 13.29H18.4754V12.5561H20.0309C21.1678 12.5561 21.9532 13.29 21.9532 14.3647C21.9532 15.4344 21.1573 16.1734 19.9948 16.1734ZM22.0952 10.6369H1.90479V1.90479H22.0952V10.6369Z" fill="#EFEFEF"/>
    <path d="M4.4165 8.21717H5.50603V3.92662H3.62695V4.80208H4.4165V8.21717ZM8.26015 8.24785C9.47196 8.24785 10.1514 7.47029 10.1514 6.06879C10.1514 4.67334 9.47196 3.89594 8.26015 3.89594C7.03601 3.89594 6.35668 4.67334 6.35668 6.06879C6.35668 7.47029 7.03609 8.24785 8.26015 8.24785ZM8.26015 4.69178C8.79875 4.69178 9.03738 5.08973 9.03738 6.06879C9.03738 7.04785 8.79867 7.45201 8.26015 7.45201C7.70914 7.45201 7.47672 7.04794 7.47672 6.06879C7.47672 5.08965 7.70914 4.69178 8.26015 4.69178ZM10.6166 7.02371C10.6166 7.78258 11.3021 8.26604 12.3733 8.26604C13.4442 8.26604 14.1298 7.77638 14.1298 7.00511C14.1298 6.52794 13.8361 6.11774 13.3647 5.92178C13.7014 5.73814 13.9033 5.40774 13.9033 5.03425C13.9033 4.33045 13.3097 3.88379 12.3671 3.88379C11.4369 3.88379 10.837 4.31854 10.837 5.00407C10.837 5.37714 11.0697 5.71979 11.4307 5.92186C10.935 6.11774 10.6166 6.53381 10.6166 7.02371ZM12.3733 4.59991C12.7711 4.59991 12.9914 4.77752 12.9914 5.09552C12.9914 5.4017 12.7711 5.57319 12.3733 5.57319C11.9754 5.57319 11.7551 5.4017 11.7551 5.09552C11.7551 4.77752 11.9755 4.59991 12.3733 4.59991ZM12.3733 6.35662C12.8444 6.35662 13.1077 6.55845 13.1077 6.91358C13.1077 7.28078 12.8444 7.47674 12.3733 7.47674C11.902 7.47674 11.645 7.27457 11.645 6.91358C11.6451 6.55845 11.902 6.35662 12.3733 6.35662ZM16.4926 8.24785C17.7043 8.24785 18.3837 7.47029 18.3837 6.06879C18.3837 4.67334 17.7043 3.89594 16.4926 3.89594C15.2684 3.89594 14.5889 4.67334 14.5889 6.06879C14.5889 7.47029 15.2684 8.24785 16.4926 8.24785ZM16.4926 4.69178C17.0312 4.69178 17.2696 5.08973 17.2696 6.06879C17.2696 7.04785 17.0311 7.45201 16.4926 7.45201C15.9417 7.45201 15.7091 7.04794 15.7091 6.06879C15.7091 5.08965 15.9417 4.69178 16.4926 4.69178ZM19.4264 7.59316H19.8286C20.3956 7.59316 20.7219 7.2921 20.7219 6.7726C20.7219 6.27873 20.3957 5.99984 19.8286 5.99984H18.8627V8.21709H19.4263L19.4264 7.59316ZM19.4264 6.44335H19.8002C20.0472 6.44335 20.1898 6.56027 20.1898 6.79203C20.1898 7.02619 20.0472 7.14972 19.8002 7.14972H19.4264V6.44335Z" fill="#EFEFEF"/>
</svg>
