<svg width="28" height="28" viewBox="0 0 28 28" fill="none" xmlns="http://www.w3.org/2000/svg">
    <path d="M25.7788 2.43786C24.3293 0.865812 22.3405 0 20.1782 0C18.5619 0 17.0818 0.511 15.7786 1.51867C15.1211 2.02727 14.5253 2.64961 14 3.37586C13.4749 2.64977 12.8789 2.02727 12.2212 1.51867C10.9183 0.511 9.43808 0 7.82179 0C5.6595 0 3.67046 0.865812 2.22102 2.43786C0.788922 3.99153 0 6.11412 0 8.41482C0 10.7828 0.882492 12.9505 2.77709 15.2366C4.47196 17.2817 6.90791 19.3577 9.7288 21.7616C10.6921 22.5825 11.7839 23.5131 12.9176 24.5043C13.2171 24.7666 13.6018 24.9112 14 24.911C14.3984 24.911 14.7829 24.7666 15.082 24.5047C16.2157 23.5133 17.3082 22.5823 18.2718 21.7609C21.0923 19.3574 23.5282 17.2817 25.2231 15.2364C27.1177 12.9505 28 10.7828 28 8.4146C28 6.11412 27.2111 3.99153 25.7788 2.43786Z" fill="#EDEDED"/>
</svg>
