<svg width="24" height="24" viewBox="0 0 24 24" fill="none" xmlns="http://www.w3.org/2000/svg">
    <path d="M12.87 15.1659L10.33 12.6558L10.36 12.6258C12.1 10.6858 13.34 8.45584 14.07 6.09582H17V4.09084H10V2.09082H7.99999V4.09084H1V6.08082H12.17C11.495 8.01081 10.44 9.84081 8.99997 11.4408C8.06997 10.4058 7.29996 9.28084 6.68997 8.09082H4.69C5.41999 9.72081 6.42002 11.2608 7.66999 12.6508L2.58499 17.6758L4 19.0908L9.00002 14.0908L12.11 17.2008L12.87 15.1659ZM18.5 10.0908H16.5L12 22.0909H14L15.125 19.0908H19.875L21 22.0909H23L18.5 10.0908ZM15.875 17.0908L17.5 12.7558L19.125 17.0908H15.875Z" fill="#DBBA8F"/>
</svg>
