<svg width="28" height="28" viewBox="0 0 28 28" fill="none" xmlns="http://www.w3.org/2000/svg">
    <path fill-rule="evenodd" clip-rule="evenodd" d="M15.6275 1.54443C15.1211 1.29547 14.5643 1.16602 14 1.16602C13.4357 1.16602 12.8789 1.29547 12.3725 1.54443L2.16187 6.57276C0.835367 7.2261 0.835367 9.10793 2.16187 9.76126L12.3725 14.7884C12.8789 15.0375 13.4357 15.167 14 15.167C14.5644 15.167 15.1211 15.0375 15.6275 14.7884L25.8382 9.7601C27.1647 9.10676 27.1647 7.22493 25.8382 6.5716L15.6275 1.54443ZM2.2202 12.3781C2.3004 12.3386 2.38862 12.318 2.47803 12.318C2.56745 12.318 2.65566 12.3386 2.73587 12.3781L12.3725 17.1229C12.8789 17.3719 13.4357 17.5013 14 17.5013C14.5643 17.5013 15.1211 17.3719 15.6275 17.1229L25.2642 12.3781C25.3444 12.3386 25.4326 12.318 25.522 12.318C25.6114 12.318 25.6997 12.3386 25.7799 12.3781L25.8382 12.4061C27.1647 13.0594 27.1647 14.9424 25.8382 15.5946L15.6275 20.6229C15.1211 20.8719 14.5643 21.0013 14 21.0013C13.4357 21.0013 12.8789 20.8719 12.3725 20.6229L2.16187 15.5946C0.835367 14.9413 0.835367 13.0594 2.16187 12.4061L2.2202 12.3781ZM2.73587 18.2114C2.65566 18.1719 2.56745 18.1514 2.47803 18.1514C2.38862 18.1514 2.3004 18.1719 2.2202 18.2114L2.16187 18.2406C0.835367 18.8939 0.835367 20.7758 2.16187 21.4291L12.3725 26.4563C12.8789 26.7052 13.4357 26.8347 14 26.8347C14.5643 26.8347 15.1211 26.7052 15.6275 26.4563L25.8382 21.4279C27.1647 20.7746 27.1647 18.8928 25.8382 18.2394L25.7799 18.2114C25.6997 18.1719 25.6114 18.1514 25.522 18.1514C25.4326 18.1514 25.3444 18.1719 25.2642 18.2114L15.6275 22.9563C15.1211 23.2052 14.5643 23.3347 14 23.3347C13.4357 23.3347 12.8789 23.2052 12.3725 22.9563L2.73587 18.2114Z" fill="#EDEDED"/>
</svg>
