<svg width="28" height="28" viewBox="0 0 28 28" fill="none" xmlns="http://www.w3.org/2000/svg">
    <path d="M7 14C7 14.9283 6.63125 15.8185 5.97487 16.4749C5.3185 17.1313 4.42826 17.5 3.5 17.5C2.57174 17.5 1.6815 17.1313 1.02513 16.4749C0.368749 15.8185 0 14.9283 0 14C0 13.0717 0.368749 12.1815 1.02513 11.5251C1.6815 10.8687 2.57174 10.5 3.5 10.5C4.42826 10.5 5.3185 10.8687 5.97487 11.5251C6.63125 12.1815 7 13.0717 7 14ZM17.5 14C17.5 14.9283 17.1313 15.8185 16.4749 16.4749C15.8185 17.1313 14.9283 17.5 14 17.5C13.0717 17.5 12.1815 17.1313 11.5251 16.4749C10.8687 15.8185 10.5 14.9283 10.5 14C10.5 13.0717 10.8687 12.1815 11.5251 11.5251C12.1815 10.8687 13.0717 10.5 14 10.5C14.9283 10.5 15.8185 10.8687 16.4749 11.5251C17.1313 12.1815 17.5 13.0717 17.5 14ZM24.5 17.5C25.4283 17.5 26.3185 17.1313 26.9749 16.4749C27.6313 15.8185 28 14.9283 28 14C28 13.0717 27.6313 12.1815 26.9749 11.5251C26.3185 10.8687 25.4283 10.5 24.5 10.5C23.5717 10.5 22.6815 10.8687 22.0251 11.5251C21.3687 12.1815 21 13.0717 21 14C21 14.9283 21.3687 15.8185 22.0251 16.4749C22.6815 17.1313 23.5717 17.5 24.5 17.5Z" fill="white"/>
</svg>
