<svg width="24" height="24" viewBox="0 0 24 24" fill="none" xmlns="http://www.w3.org/2000/svg">
    <path d="M4.63276 17.0778H9.68025V15.9153C9.68011 15.866 9.6897 15.8172 9.7085 15.7716C9.72729 15.726 9.75491 15.6846 9.78976 15.6498C9.82461 15.6149 9.86601 15.5873 9.91157 15.5685C9.95714 15.5497 10.006 15.5401 10.0553 15.5403H12.3765C12.4258 15.5401 12.4746 15.5497 12.5202 15.5685C12.5658 15.5873 12.6072 15.6149 12.642 15.6498C12.6769 15.6846 12.7045 15.726 12.7233 15.7716C12.7421 15.8172 12.7517 15.866 12.7515 15.9153V17.0778H14.544C14.722 16.6274 14.9729 16.2093 15.2865 15.8403C15.9596 15.052 16.8832 14.5189 17.9024 14.3305C18.9217 14.1421 19.9748 14.3097 20.8853 14.8053V12.7803C20.8851 12.2831 20.6874 11.8063 20.3359 11.4547C19.9843 11.1031 19.5075 10.9055 19.0103 10.9053H3.41776C2.92054 10.9055 2.44374 11.1031 2.09215 11.4547C1.74056 11.8063 1.54295 12.2831 1.54276 12.7803V13.9915C1.54553 14.8098 1.87209 15.5938 2.45108 16.1721C3.03008 16.7504 3.81443 17.076 4.63276 17.0778Z" fill="#CAC3C3"/>
    <path d="M11.1803 17.8649C11.2843 17.8737 11.3891 17.8609 11.488 17.8273C11.5869 17.7937 11.6778 17.74 11.755 17.6695C11.8321 17.5991 11.8938 17.5134 11.9363 17.418C11.9787 17.3225 12.0009 17.2193 12.0015 17.1149V16.2899H10.4303V17.1149C10.4303 17.3138 10.5093 17.5045 10.6499 17.6452C10.7906 17.7858 10.9813 17.8649 11.1803 17.8649ZM10.5128 2.68485C10.5789 2.55525 10.6796 2.44645 10.8036 2.37046C10.9277 2.29448 11.0704 2.25426 11.2159 2.25426C11.3614 2.25426 11.5041 2.29448 11.6281 2.37046C11.7522 2.44645 11.8529 2.55525 11.919 2.68485L15.654 10.1549H16.494L12.5903 2.3511C12.4629 2.09573 12.2671 1.88086 12.0245 1.73054C11.782 1.58022 11.5024 1.50039 11.217 1.5C10.9317 1.49961 10.6519 1.57867 10.4089 1.72833C10.166 1.87799 9.96952 2.09233 9.84151 2.34735L5.93776 10.1549H6.77776L10.5128 2.68485ZM20.8853 15.6936C18.465 13.9101 14.9183 15.7757 14.9678 18.7499C14.9705 19.7436 15.3665 20.6958 16.0692 21.3984C16.7718 22.1011 17.7241 22.4971 18.7178 22.4999C22.3703 22.4871 23.8313 17.7719 20.8853 15.6936ZM20.529 19.1249H19.0928V20.5611C19.0928 20.6606 19.0533 20.7559 18.9829 20.8263C18.9126 20.8966 18.8172 20.9361 18.7178 20.9361C18.6183 20.9361 18.5229 20.8966 18.4526 20.8263C18.3823 20.7559 18.3428 20.6606 18.3428 20.5611V19.1249H16.9028C16.8033 19.1249 16.7079 19.0853 16.6376 19.015C16.5673 18.9447 16.5278 18.8493 16.5278 18.7499C16.5278 18.6504 16.5673 18.555 16.6376 18.4847C16.7079 18.4144 16.8033 18.3749 16.9028 18.3749H18.3428V16.9386C18.3428 16.8391 18.3823 16.7438 18.4526 16.6734C18.5229 16.6031 18.6183 16.5636 18.7178 16.5636C18.8172 16.5636 18.9126 16.6031 18.9829 16.6734C19.0533 16.7438 19.0928 16.8391 19.0928 16.9386V18.3749H20.529C20.6285 18.3749 20.7238 18.4144 20.7942 18.4847C20.8645 18.555 20.904 18.6504 20.904 18.7499C20.904 18.8493 20.8645 18.9447 20.7942 19.015C20.7238 19.0853 20.6285 19.1249 20.529 19.1249Z" fill="#CAC3C3"/>
    <path d="M14.2178 18.7498C14.2183 18.4397 14.2509 18.1306 14.3153 17.8273H12.5715C12.0664 18.8671 10.365 18.8668 9.86026 17.8273H4.63276C4.03071 17.8275 3.43711 17.6856 2.90019 17.4133C2.36328 17.1409 1.8982 16.7457 1.54276 16.2598V19.4998C1.54375 20.2951 1.86014 21.0576 2.42253 21.62C2.98492 22.1824 3.74741 22.4988 4.54276 22.4998H16.239C15.6194 22.0894 15.1107 21.5324 14.7581 20.8782C14.4055 20.2241 14.2199 19.4929 14.2178 18.7498Z" fill="#CAC3C3"/>
</svg>
