<svg width="24" height="24" viewBox="0 0 24 24" fill="none" xmlns="http://www.w3.org/2000/svg">
    <path d="M2.25013 1.50018C2.05124 1.50022 1.86052 1.57925 1.71988 1.71988C1.57925 1.86052 1.50022 2.05124 1.50018 2.25013V6.7516C1.49801 6.85146 1.5158 6.95074 1.55251 7.04363C1.58923 7.13652 1.64412 7.22114 1.71397 7.29253C1.78383 7.36392 1.86724 7.42064 1.9593 7.45936C2.05137 7.49808 2.15025 7.51803 2.25013 7.51803C2.35001 7.51803 2.44888 7.49808 2.54095 7.45936C2.63302 7.42064 2.71643 7.36392 2.78628 7.29253C2.85613 7.22114 2.91103 7.13652 2.94774 7.04363C2.98445 6.95074 3.00225 6.85146 3.00008 6.7516V3.00008H6.74859C6.84844 3.00225 6.94773 2.98445 7.04062 2.94774C7.13351 2.91103 7.21813 2.85613 7.28952 2.78628C7.3609 2.71643 7.41762 2.63302 7.45635 2.54095C7.49507 2.44888 7.51502 2.35001 7.51502 2.25013C7.51502 2.15025 7.49507 2.05137 7.45635 1.9593C7.41762 1.86724 7.3609 1.78383 7.28952 1.71397C7.21813 1.64412 7.13351 1.58923 7.04062 1.55251C6.94773 1.5158 6.84844 1.49801 6.74859 1.50018H2.25013ZM17.2488 1.50018C17.1489 1.49801 17.0496 1.5158 16.9567 1.55251C16.8639 1.58923 16.7792 1.64412 16.7078 1.71397C16.6365 1.78383 16.5797 1.86724 16.541 1.9593C16.5023 2.05137 16.4823 2.15025 16.4823 2.25013C16.4823 2.35001 16.5023 2.44888 16.541 2.54095C16.5797 2.63302 16.6365 2.71643 16.7078 2.78628C16.7792 2.85613 16.8639 2.91103 16.9567 2.94774C17.0496 2.98445 17.1489 3.00225 17.2488 3.00008H20.9994V6.7516C20.9994 6.95059 21.0785 7.14144 21.2192 7.28215C21.3599 7.42285 21.5507 7.5019 21.7497 7.5019C21.9487 7.5019 22.1396 7.42285 22.2803 7.28215C22.421 7.14144 22.5 6.95059 22.5 6.7516V2.25013C22.5 2.15159 22.4806 2.05402 22.4428 1.963C22.4051 1.87197 22.3498 1.78928 22.2801 1.71963C22.2104 1.64999 22.1276 1.59476 22.0365 1.55711C21.9455 1.51945 21.8479 1.50011 21.7494 1.50018H17.2488ZM12.0002 5.62446C8.4882 5.62446 5.62446 8.4882 5.62446 12.0002C5.62446 15.5122 8.4882 18.3752 12.0002 18.3752C15.512 18.3752 18.3752 15.5122 18.3752 12.0002C18.3752 8.4882 15.5122 5.62446 12.0002 5.62446ZM12.0002 7.12507C12.6408 7.1236 13.2754 7.24869 13.8675 7.49317C14.4597 7.73765 14.9977 8.09669 15.4506 8.54969C15.9036 9.00268 16.2626 9.54069 16.5071 10.1328C16.7516 10.725 16.8766 11.3596 16.8751 12.0002C16.8766 12.6408 16.7516 13.2754 16.5071 13.8676C16.2627 14.4597 15.9037 14.9977 15.4507 15.4507C14.9977 15.9037 14.4597 16.2628 13.8676 16.5073C13.2754 16.7517 12.6408 16.8768 12.0002 16.8753C11.3596 16.8768 10.7249 16.7517 10.1328 16.5073C9.54064 16.2628 9.00262 15.9037 8.54962 15.4508C8.09663 14.9978 7.73759 14.4597 7.49312 13.8676C7.24865 13.2754 7.12357 12.6408 7.12507 12.0002C7.12357 11.3596 7.24865 10.7249 7.49312 10.1328C7.73759 9.54064 8.09663 9.00262 8.54962 8.54962C9.00262 8.09663 9.54064 7.73759 10.1328 7.49312C10.7249 7.24865 11.3596 7.12357 12.0002 7.12507ZM11.9862 8.99064C11.788 8.99414 11.5993 9.07591 11.4613 9.21808C11.3232 9.36026 11.247 9.55129 11.2494 9.74945V11.2495H9.74963C9.55064 11.2495 9.35979 11.3286 9.21908 11.4693C9.07837 11.61 8.99932 11.8008 8.99932 11.9998C8.99932 12.1988 9.07837 12.3897 9.21908 12.5304C9.35979 12.6711 9.55064 12.7501 9.74963 12.7501H11.2495V14.2509C11.2495 14.4499 11.3286 14.6408 11.4693 14.7815C11.61 14.9223 11.8009 15.0013 11.9999 15.0013C12.1989 15.0013 12.3898 14.9223 12.5305 14.7815C12.6713 14.6408 12.7503 14.4499 12.7503 14.2509V12.7503H14.2504C14.3489 12.7503 14.4465 12.7309 14.5376 12.6932C14.6286 12.6555 14.7113 12.6002 14.781 12.5305C14.8507 12.4608 14.906 12.3781 14.9437 12.2871C14.9814 12.196 15.0008 12.0985 15.0008 11.9999C15.0008 11.9014 14.9814 11.8038 14.9437 11.7128C14.906 11.6217 14.8507 11.539 14.781 11.4693C14.7113 11.3996 14.6286 11.3444 14.5376 11.3067C14.4465 11.2689 14.3489 11.2495 14.2504 11.2495H12.7503V9.74945C12.7515 9.64904 12.7325 9.54942 12.6945 9.45648C12.6564 9.36355 12.6001 9.2792 12.5289 9.20844C12.4576 9.13767 12.3729 9.08193 12.2797 9.04452C12.1865 9.00711 12.0866 8.98879 11.9862 8.99064ZM2.23914 16.49C2.14059 16.4914 2.04328 16.5123 1.95279 16.5514C1.8623 16.5904 1.78041 16.647 1.71178 16.7177C1.64315 16.7885 1.58914 16.8721 1.55283 16.9637C1.51652 17.0553 1.49863 17.1532 1.50018 17.2518V21.7495C1.50011 21.8481 1.51945 21.9457 1.55711 22.0367C1.59476 22.1278 1.64999 22.2105 1.71963 22.2802C1.78928 22.35 1.87197 22.4053 1.963 22.443C2.05402 22.4807 2.15159 22.5002 2.25013 22.5002H6.74877C6.94776 22.5002 7.1386 22.4212 7.27931 22.2804C7.42002 22.1397 7.49907 21.9489 7.49907 21.7499C7.49907 21.5509 7.42002 21.3601 7.27931 21.2193C7.1386 21.0786 6.94776 20.9996 6.74877 20.9996H3.00008V17.2516C3.00163 17.1512 2.98301 17.0515 2.94533 16.9585C2.90765 16.8654 2.85167 16.7809 2.78071 16.7098C2.70975 16.6388 2.62525 16.5828 2.53222 16.545C2.4392 16.5072 2.33953 16.4885 2.23914 16.49ZM21.7384 16.49C21.6398 16.4914 21.5426 16.5123 21.4521 16.5514C21.3616 16.5905 21.2797 16.647 21.2111 16.7178C21.1425 16.7885 21.0885 16.8721 21.0522 16.9637C21.0159 17.0554 20.998 17.1532 20.9996 17.2518V20.9996H17.2486C17.0496 20.9996 16.8588 21.0786 16.7181 21.2193C16.5773 21.3601 16.4983 21.5509 16.4983 21.7499C16.4983 21.9489 16.5773 22.1397 16.7181 22.2804C16.8588 22.4212 17.0496 22.5002 17.2486 22.5002H21.7494C21.848 22.5003 21.9456 22.4809 22.0367 22.4432C22.1278 22.4055 22.2106 22.3502 22.2803 22.2805C22.35 22.2108 22.4053 22.128 22.443 22.0369C22.4807 21.9458 22.5001 21.8481 22.5 21.7495V17.2516C22.5016 17.1511 22.4829 17.0514 22.4452 16.9583C22.4075 16.8652 22.3514 16.7806 22.2803 16.7095C22.2093 16.6385 22.1247 16.5824 22.0316 16.5447C21.9384 16.507 21.8388 16.4884 21.7384 16.49Z" fill="#F1F1F1"/>
</svg>
