<svg width="8" height="8" viewBox="0 0 8 8" fill="none" xmlns="http://www.w3.org/2000/svg">
    <g clip-path="url(#clip0_267_5741)">
        <path d="M7.39637 3.6512L0.996389 0.0512157C0.935568 0.017101 0.866897 -0.000548249 0.797164 1.29787e-05C0.727432 0.000574206 0.659054 0.0193265 0.59879 0.0544157C0.538375 0.089629 0.488258 0.140078 0.453443 0.200723C0.418628 0.261368 0.400335 0.330087 0.400391 0.400015V7.59999C0.400335 7.66992 0.418628 7.73864 0.453443 7.79928C0.488258 7.85993 0.538375 7.91038 0.59879 7.94559C0.660054 7.9811 0.729581 7.99986 0.800389 7.99999C0.867589 7.99999 0.935589 7.98319 0.996389 7.94879L7.39637 4.3488C7.52197 4.2776 7.60037 4.1448 7.60037 4C7.60037 3.8552 7.52197 3.7224 7.39637 3.6512Z" fill="white"/>
    </g>
    <defs>
        <clipPath id="clip0_267_5741">
            <rect width="8" height="8" fill="white"/>
        </clipPath>
    </defs>
</svg>
