<svg width="24" height="24" viewBox="0 0 24 24" fill="none" xmlns="http://www.w3.org/2000/svg">
    <path d="M6 15.75C5.80109 15.75 5.61032 15.671 5.46967 15.5303C5.32902 15.3897 5.25 15.1989 5.25 15V9C5.25 8.80109 5.32902 8.61032 5.46967 8.46967C5.61032 8.32902 5.80109 8.25 6 8.25C6.19891 8.25 6.38968 8.32902 6.53033 8.46967C6.67098 8.61032 6.75 8.80109 6.75 9V15C6.75 15.1989 6.67098 15.3897 6.53033 15.5303C6.38968 15.671 6.19891 15.75 6 15.75ZM10 15.75C9.80109 15.75 9.61032 15.671 9.46967 15.5303C9.32902 15.3897 9.25 15.1989 9.25 15V9C9.25 8.80109 9.32902 8.61032 9.46967 8.46967C9.61032 8.32902 9.80109 8.25 10 8.25C10.1989 8.25 10.3897 8.32902 10.5303 8.46967C10.671 8.61032 10.75 8.80109 10.75 9V15C10.75 15.1989 10.671 15.3897 10.5303 15.5303C10.3897 15.671 10.1989 15.75 10 15.75Z" fill="#EEEEEE"/>
    <path d="M10 12.75H6C5.80109 12.75 5.61032 12.671 5.46967 12.5303C5.32902 12.3897 5.25 12.1989 5.25 12C5.25 11.8011 5.32902 11.6103 5.46967 11.4697C5.61032 11.329 5.80109 11.25 6 11.25H10C10.1989 11.25 10.3897 11.329 10.5303 11.4697C10.671 11.6103 10.75 11.8011 10.75 12C10.75 12.1989 10.671 12.3897 10.5303 12.5303C10.3897 12.671 10.1989 12.75 10 12.75ZM16 15.75H14C13.8011 15.75 13.6103 15.671 13.4697 15.5303C13.329 15.3897 13.25 15.1989 13.25 15V9C13.25 8.80109 13.329 8.61032 13.4697 8.46967C13.6103 8.32902 13.8011 8.25 14 8.25H16C16.7292 8.25053 17.4283 8.54043 17.944 9.05604C18.4596 9.57165 18.7495 10.2708 18.75 11V13C18.7495 13.7292 18.4596 14.4283 17.944 14.944C17.4283 15.4596 16.7292 15.7495 16 15.75ZM14.75 14.25H16C16.3314 14.2495 16.649 14.1176 16.8833 13.8833C17.1176 13.649 17.2495 13.3314 17.25 13V11C17.2495 10.6686 17.1176 10.351 16.8833 10.1167C16.649 9.8824 16.3314 9.75053 16 9.75H14.75V14.25Z" fill="#EEEEEE"/>
    <path d="M20.0001 21.75H4.00013C3.19822 21.6667 2.46098 21.2722 1.94678 20.6512C1.43258 20.0303 1.18245 19.2324 1.25013 18.429V5.571C1.18245 4.76762 1.43258 3.96974 1.94678 3.34878C2.46098 2.72781 3.19822 2.3333 4.00013 2.25H5.00013C5.19905 2.25 5.38981 2.32902 5.53046 2.46967C5.67112 2.61032 5.75013 2.80109 5.75013 3C5.75013 3.19891 5.67112 3.38968 5.53046 3.53033C5.38981 3.67098 5.19905 3.75 5.00013 3.75H4.00013C3.32213 3.75 2.75013 4.584 2.75013 5.571V18.429C2.75013 19.416 3.32213 20.25 4.00013 20.25H20.0001C20.6781 20.25 21.2501 19.416 21.2501 18.429V5.571C21.2501 4.584 20.6781 3.75 20.0001 3.75H10.0001C9.80122 3.75 9.61046 3.67098 9.4698 3.53033C9.32915 3.38968 9.25013 3.19891 9.25013 3C9.25013 2.80109 9.32915 2.61032 9.4698 2.46967C9.61046 2.32902 9.80122 2.25 10.0001 2.25H20.0001C20.802 2.3333 21.5393 2.72781 22.0535 3.34878C22.5677 3.96974 22.8178 4.76762 22.7501 5.571V18.429C22.8178 19.2324 22.5677 20.0303 22.0535 20.6512C21.5393 21.2722 20.802 21.6667 20.0001 21.75Z" fill="#EEEEEE"/>
    <path d="M8 3.75H7C6.80109 3.75 6.61032 3.67098 6.46967 3.53033C6.32902 3.38968 6.25 3.19891 6.25 3C6.25 2.80109 6.32902 2.61032 6.46967 2.46967C6.61032 2.32902 6.80109 2.25 7 2.25H8C8.19891 2.25 8.38968 2.32902 8.53033 2.46967C8.67098 2.61032 8.75 2.80109 8.75 3C8.75 3.19891 8.67098 3.38968 8.53033 3.53033C8.38968 3.67098 8.19891 3.75 8 3.75Z" fill="#EEEEEE"/>
</svg>
