<svg width="24" height="25" viewBox="0 0 24 25" fill="none" xmlns="http://www.w3.org/2000/svg">
    <path d="M16.9491 5.5149H20.9463L16.7393 1.38281V5.30533C16.7393 5.42082 16.8333 5.5149 16.9491 5.5149Z" fill="#EFEFEF"/>
    <path d="M16.9492 6.83305C16.1067 6.83305 15.4212 6.14765 15.4212 5.30513V1H4.45957C3.10331 1 2 2.10331 2 3.45953V21.0405C2 22.3967 3.10331 23.5 4.45957 23.5H18.8764C20.2328 23.5 21.3359 22.3967 21.3359 21.0405V6.83302L16.9492 6.83305ZM15.4424 18.0508H6.95207C6.58803 18.0508 6.29289 17.7556 6.29289 17.3916C6.29289 17.0275 6.58803 16.7324 6.95207 16.7324H15.4424C15.8067 16.7324 16.1016 17.0275 16.1016 17.3916C16.1016 17.7556 15.8067 18.0508 15.4424 18.0508ZM6.29289 14.7549C6.29289 14.3908 6.58803 14.0957 6.95207 14.0957H14.5286C14.8928 14.0957 15.1877 14.3908 15.1877 14.7549C15.1877 15.1189 14.8925 15.4141 14.5286 15.4141H6.95207C6.58803 15.4141 6.29289 15.1189 6.29289 14.7549ZM16.244 12.7773H6.95207C6.58803 12.7773 6.29289 12.4822 6.29289 12.1182C6.29289 11.7541 6.58803 11.459 6.95207 11.459H16.244C16.6081 11.459 16.9032 11.7541 16.9032 12.1182C16.9032 12.4822 16.6081 12.7773 16.244 12.7773Z" fill="#EFEFEF"/>
</svg>
