<svg width="24" height="24" viewBox="0 0 24 24" fill="none" xmlns="http://www.w3.org/2000/svg">
    <g clip-path="url(#clip0_97_4256)">
        <path d="M2 14.5H11.25V24H3.75C2.79 24 2 23.21 2 22.25V14.5ZM22 14.5V22.25C22 23.21 21.21 24 20.25 24H12.75V14.5H22ZM0 8.75V11.25C0 12.21 0.79 13 1.75 13H11.25V7H1.75C0.79 7 0 7.79 0 8.75ZM22.25 7H12.75V13H22.25C23.21 13 24 12.21 24 11.25V8.75C24 7.79 23.21 7 22.25 7Z" fill="#DBBA8F"/>
        <path d="M12 8.04408C11.8923 8.04376 11.7859 8.02032 11.6881 7.97533C11.5902 7.93035 11.5032 7.86487 11.4328 7.78333C11.3625 7.70179 11.3105 7.60609 11.2803 7.5027C11.2501 7.39932 11.2425 7.29066 11.258 7.18408C11.628 4.68408 13.581 -0.0449219 18.329 -0.0449219C21.039 -0.0439219 22 1.42008 22 2.67408C22 4.90308 18.897 8.04408 12 8.04408ZM18.329 1.45608C14.747 1.45608 13.387 4.86108 12.936 6.52208C15.762 6.39008 17.544 5.67508 18.57 5.06608C19.993 4.22108 20.5 3.27608 20.5 2.67308C20.5 1.77508 19.379 1.45608 18.329 1.45608Z" fill="#DBBA8F"/>
        <path d="M12.001 8.04405C5.10401 8.04405 2.00101 4.90305 2.00101 2.67405C2.00101 1.42005 2.96301 -0.0439453 5.67301 -0.0439453C10.42 -0.0439453 12.373 4.68505 12.743 7.18505C12.7583 7.29156 12.7506 7.40011 12.7204 7.50337C12.6901 7.60663 12.6381 7.70221 12.5677 7.78363C12.4974 7.86506 12.4104 7.93044 12.3126 7.97537C12.2149 8.0203 12.1086 8.04372 12.001 8.04405ZM5.67301 1.45605C4.62301 1.45605 3.50101 1.77605 3.50101 2.67405C3.50101 3.95105 5.73401 6.27805 11.064 6.52305C10.614 4.86105 9.25401 1.45605 5.67301 1.45605Z" fill="#DBBA8F"/>
    </g>
    <defs>
        <clipPath id="clip0_97_4256">
            <rect width="24" height="24" fill="white"/>
        </clipPath>
    </defs>
</svg>
