<svg width="24" height="24" viewBox="0 0 24 24" fill="none" xmlns="http://www.w3.org/2000/svg">
    <g clip-path="url(#clip0_183_762)">
        <path fill-rule="evenodd" clip-rule="evenodd" d="M23.0355 12.0887C23.0418 12.2381 23.0448 12.388 23.0448 12.5382C23.0448 18.6323 18.0973 23.5799 12.0031 23.5799C5.90901 23.5799 0.961426 18.6323 0.961426 12.5382C0.961426 12.388 0.964431 12.2381 0.970799 12.0887C1.29142 17.9004 6.11203 22.5206 12.0031 22.5206C17.8942 22.5206 22.7148 17.9004 23.0355 12.0887ZM12.0031 1.32715C17.6017 1.32715 22.147 5.87246 22.147 11.471C22.147 17.0696 17.6017 21.6149 12.0031 21.6149C6.40456 21.6149 1.85926 17.0696 1.85926 11.471C1.85926 5.87246 6.40456 1.32715 12.0031 1.32715ZM12.0031 2.99994C16.859 2.99994 20.8016 6.9422 20.8016 11.7984C20.8016 16.6542 16.859 20.5969 12.0031 20.5969C7.14732 20.5969 3.20468 16.6542 3.20468 11.7984C3.20468 6.9422 7.14732 2.99994 12.0031 2.99994Z" fill="#B05D01"/>
        <path d="M12.003 20.5969C16.8623 20.5969 20.8015 16.6577 20.8015 11.7985C20.8015 6.9392 16.8623 3 12.003 3C7.14379 3 3.20459 6.9392 3.20459 11.7985C3.20459 16.6577 7.14379 20.5969 12.003 20.5969Z" fill="#F39E09"/>
        <path fill-rule="evenodd" clip-rule="evenodd" d="M20.167 8.51346C20.3822 9.04702 20.5441 9.60057 20.6502 10.166L9.925 20.3492C9.36599 20.2135 8.82173 20.0229 8.30015 19.7803L20.167 8.51346ZM16.7836 4.412C17.9147 5.14637 18.8631 6.12937 19.5565 7.28602L7.10642 19.1068C5.98693 18.3549 5.05402 17.3571 4.37887 16.1897L16.7836 4.412ZM14.0294 3.23438C14.5965 3.36847 15.143 3.55725 15.6625 3.79547L3.8215 15.0379C3.60857 14.5014 3.44936 13.9451 3.34619 13.3771L14.0294 3.23438Z" fill="#FAA50F"/>
        <path fill-rule="evenodd" clip-rule="evenodd" d="M12.0004 0.420898C5.90332 0.420898 0.953125 5.37111 0.953125 11.4682C0.953125 17.5653 5.90332 22.5152 12.0004 22.5152C18.0976 22.5152 23.0474 17.5653 23.0474 11.4682C23.0474 5.37111 18.0976 0.421276 12.0004 0.421276V0.420898ZM12.0004 2.23191C17.0982 2.23191 21.2364 6.37082 21.2364 11.4682C21.2364 16.5656 17.0982 20.7042 12.0004 20.7042C6.90265 20.7042 2.76412 16.566 2.76412 11.4682C2.76412 6.37045 6.90302 2.23191 12.0004 2.23191Z" fill="#FFD400"/>
        <mask id="mask0_183_762" style="mask-type:luminance" maskUnits="userSpaceOnUse" x="0" y="0" width="24" height="23">
            <path d="M12.0005 0.420898C5.90357 0.420898 0.953369 5.3711 0.953369 11.468C0.953369 17.565 5.90357 22.5152 12.0005 22.5152C18.0974 22.5152 23.0476 17.565 23.0476 11.468C23.0476 5.3711 18.0974 0.420898 12.0005 0.420898ZM12.0005 2.2319C17.0981 2.2319 21.2366 6.37042 21.2366 11.468C21.2366 16.5657 17.0981 20.7042 12.0005 20.7042C6.90289 20.7042 2.76438 16.5657 2.76438 11.468C2.76438 6.37042 6.90289 2.2319 12.0005 2.2319Z" fill="white"/>
        </mask>
        <g mask="url(#mask0_183_762)">
            <path fill-rule="evenodd" clip-rule="evenodd" d="M20.7182 0.671643L23.4684 3.56672L2.40134 23.5874L-0.34922 20.6923L20.7182 0.671643ZM18.7909 -1.29004L19.8449 -0.17953L-1.22285 19.8422L-2.27686 18.7314L18.7909 -1.29004ZM24.3895 4.49866L25.4435 5.60953L4.37606 25.6302L3.32205 24.5193L24.3895 4.49866Z" fill="#FFE66D"/>
        </g>
        <path fill-rule="evenodd" clip-rule="evenodd" d="M22.6751 14.3427C21.4102 19.0506 17.1087 22.5209 12.0031 22.5209C6.89742 22.5209 2.59595 19.0506 1.33105 14.3427C2.68996 18.9521 6.95623 22.3201 12.0031 22.3201C17.0499 22.3201 21.3162 18.9521 22.6751 14.3427ZM6.74572 3.87598C4.34066 5.54465 2.76488 8.32539 2.76488 11.4713C2.76488 16.5699 6.90454 20.7095 12.0031 20.7095C17.1016 20.7095 21.2413 16.5699 21.2413 11.4713C21.2413 8.32539 19.6655 5.54465 17.2604 3.87598C19.7767 5.56975 21.4338 8.44526 21.4338 11.7047C21.4338 16.9096 17.208 21.1354 12.0031 21.1354C6.79816 21.1354 2.57236 16.9096 2.57236 11.7047C2.57236 8.44526 4.22941 5.56975 6.74572 3.87598Z" fill="#FFF5B3"/>
        <path fill-rule="evenodd" clip-rule="evenodd" d="M12.0031 15.5536L9.88423 13.4347L8.82497 14.4943L11.4735 17.1429C11.614 17.2833 11.8045 17.3622 12.0031 17.3622C12.2018 17.3622 12.3923 17.2833 12.5328 17.1429L15.1813 14.4943L14.122 13.4347L12.0031 15.5536ZM7.76532 11.3162L7.23569 11.8458C7.09525 11.9863 7.01636 12.1768 7.01636 12.3754C7.01636 12.5741 7.09525 12.7646 7.23569 12.9051L7.76532 13.4347L8.82497 12.3754L7.76532 11.3162ZM16.2409 11.3162L15.1813 12.3754L16.2409 13.4347L16.7706 12.9051C16.911 12.7646 16.9899 12.5741 16.9899 12.3754C16.9899 12.1768 16.911 11.9863 16.7706 11.8458L16.2409 11.3162ZM12.0031 11.3162L10.9439 12.3754L12.0031 13.4347L13.0624 12.3754L12.0031 11.3162ZM8.82497 10.2565L9.88423 11.3162L12.0031 9.19727L14.122 11.3162L15.1813 10.2565L12.5328 7.608C12.3923 7.46757 12.2018 7.38867 12.0031 7.38867C11.8045 7.38867 11.614 7.46757 11.4735 7.608L8.82497 10.2565Z" fill="#E88102"/>
        <path fill-rule="evenodd" clip-rule="evenodd" d="M12.0031 14.8046L9.88423 12.6857L8.82497 13.7453L11.4735 16.3938C11.614 16.5343 11.8045 16.6132 12.0031 16.6132C12.2018 16.6132 12.3923 16.5343 12.5328 16.3938L15.1813 13.7453L14.122 12.6857L12.0031 14.8046ZM7.76532 10.5671L7.23569 11.0968C7.09525 11.2373 7.01636 11.4278 7.01636 11.6264C7.01636 11.825 7.09525 12.0156 7.23569 12.156L7.76532 12.6857L8.82497 11.6264L7.76532 10.5671ZM16.2409 10.5671L15.1813 11.6264L16.2409 12.6857L16.7706 12.156C16.911 12.0156 16.9899 11.825 16.9899 11.6264C16.9899 11.4278 16.911 11.2373 16.7706 11.0968L16.2409 10.5671ZM12.0031 10.5671L10.9439 11.6264L12.0031 12.6857L13.0624 11.6264L12.0031 10.5671ZM8.82497 9.5075L9.88423 10.5671L12.0031 8.44825L14.122 10.5671L15.1813 9.5075L12.5328 6.85898C12.3923 6.71854 12.2018 6.63965 12.0031 6.63965C11.8045 6.63965 11.614 6.71854 11.4735 6.85898L8.82497 9.5075Z" fill="#FDD835"/>
    </g>
    <defs>
        <clipPath id="clip0_183_762">
            <rect width="24" height="24" fill="white"/>
        </clipPath>
    </defs>
</svg>
