<svg width="28" height="28" viewBox="0 0 28 28" fill="none" xmlns="http://www.w3.org/2000/svg">
    <path d="M19.8334 2.40332H8.16672C7.21879 2.42475 6.31803 2.82119 5.66193 3.50572C5.00584 4.19024 4.64795 5.107 4.66672 6.05499V23.1817C4.66433 23.6477 4.79618 24.1045 5.04651 24.4976C5.29685 24.8907 5.65508 25.2034 6.07839 25.3983C6.48528 25.5702 6.93262 25.6231 7.36839 25.5509C7.80416 25.4786 8.21046 25.2841 8.54005 24.99L14.0001 20.02L19.4601 24.99C19.8754 25.3767 20.4209 25.5932 20.9884 25.5967C21.3097 25.5939 21.6271 25.5265 21.9217 25.3983C22.345 25.2034 22.7033 24.8907 22.9536 24.4976C23.2039 24.1045 23.3358 23.6477 23.3334 23.1817V6.05499C23.3522 5.107 22.9943 4.19024 22.3382 3.50572C21.6821 2.82119 20.7813 2.42475 19.8334 2.40332Z" fill="#F76212"/>
</svg>
