<svg width="20" height="20" viewBox="0 0 20 20" fill="none" xmlns="http://www.w3.org/2000/svg">
    <path d="M18.8296 18.0207L14.1822 13.4477C15.3992 12.1255 16.1469 10.3768 16.1469 8.45262C16.1464 4.33639 12.7559 1 8.57318 1C4.39048 1 1 4.33639 1 8.45262C1 12.5688 4.39048 15.9052 8.57318 15.9052C10.3804 15.9052 12.0379 15.2802 13.3399 14.241L18.0053 18.832C18.2327 19.056 18.6017 19.056 18.829 18.832C18.8831 18.7792 18.9261 18.7162 18.9554 18.6465C18.9848 18.5769 19 18.5021 19 18.4265C19 18.3509 18.985 18.2761 18.9557 18.2064C18.9265 18.1367 18.8836 18.0736 18.8296 18.0207ZM8.57318 14.7586C5.03416 14.7586 2.16524 11.9353 2.16524 8.45262C2.16524 4.96991 5.03416 2.14663 8.57318 2.14663C12.1122 2.14663 14.9811 4.96991 14.9811 8.45262C14.9811 11.9353 12.1122 14.7586 8.57318 14.7586Z" fill="#C5C5C5"/>
</svg>
