<svg width="24" height="24" viewBox="0 0 24 24" fill="none" xmlns="http://www.w3.org/2000/svg">
    <path d="M21.7936 9.61117L20.0702 9.39208C19.9297 8.9592 19.7553 8.53806 19.5486 8.13258L20.6129 6.76217C20.8209 6.49905 20.9244 6.16848 20.9038 5.83375C20.8832 5.49902 20.7398 5.18367 20.5011 4.94808L19.0573 3.50433C18.8215 3.26421 18.5055 3.11954 18.1697 3.09805C17.8339 3.07657 17.502 3.17979 17.2376 3.38792L15.869 4.45217C15.4632 4.24533 15.0417 4.07092 14.6085 3.93058L14.3894 2.21C14.3495 1.87667 14.1889 1.56949 13.9379 1.34654C13.6869 1.12359 13.3629 1.00031 13.0272 1H10.9737C10.2798 1 9.69403 1.51975 9.61153 2.20725L9.39243 3.93058C8.95903 4.07052 8.53752 4.24494 8.13196 4.45217L6.76241 3.38792C6.49912 3.18036 6.16861 3.07704 5.83399 3.09767C5.49936 3.11829 5.18405 3.26143 4.94825 3.49975L3.50444 4.94258C3.26405 5.17833 3.11922 5.49455 3.09773 5.83055C3.07624 6.16655 3.17962 6.49864 3.38802 6.76308L4.45231 8.13258C4.24524 8.53789 4.07082 8.95905 3.93071 9.39208L2.21005 9.61117C1.51977 9.69367 1 10.2794 1 10.9733V13.0267C1 13.7206 1.51977 14.3063 2.2073 14.3888L3.93071 14.6079C4.07279 15.0452 4.24789 15.4668 4.45231 15.8674L3.38802 17.2378C3.18007 17.5009 3.07649 17.8315 3.09713 18.1663C3.11776 18.501 3.26116 18.8163 3.49985 19.0519L4.94366 20.4957C5.1797 20.7353 5.49576 20.8795 5.83144 20.9008C6.16712 20.9222 6.49888 20.819 6.76332 20.6112L8.13288 19.5469C8.53348 19.7523 8.95516 19.9273 9.39243 20.0685L9.61153 21.7882C9.69403 22.4802 10.2798 23 10.9737 23H13.0272C13.7211 23 14.3069 22.4803 14.3894 21.7928L14.6085 20.0694C15.0414 19.9289 15.4625 19.7545 15.868 19.5478L17.2385 20.6121C17.7931 21.0429 18.576 20.9925 19.0527 20.5003L20.4965 19.0565C20.7366 18.8208 20.8813 18.5048 20.9028 18.169C20.9243 17.8332 20.821 17.5013 20.6129 17.2369L19.5486 15.8674C19.7539 15.4668 19.929 15.0452 20.0702 14.6079L21.7899 14.3888C22.1233 14.3489 22.4305 14.1883 22.6534 13.9373C22.8764 13.6863 22.9997 13.3624 23 13.0267V10.9733C23.0002 10.6381 22.8776 10.3144 22.6553 10.0634C22.433 9.81237 22.1265 9.65151 21.7936 9.61117ZM12.0005 16.5833C9.4731 16.5833 7.41693 14.5273 7.41693 12C7.41693 9.47275 9.4731 7.41667 12.0005 7.41667C14.5278 7.41667 16.584 9.47275 16.584 12C16.584 14.5273 14.5278 16.5833 12.0005 16.5833Z" fill="#DBBA8F"/>
</svg>
