<svg width="24" height="24" viewBox="0 0 24 24" fill="none" xmlns="http://www.w3.org/2000/svg">
    <rect x="0.5" y="0.5" width="23" height="23" rx="11.5" fill="#313234"/>
    <rect x="0.5" y="0.5" width="23" height="23" rx="11.5" stroke="url(#paint0_linear_916_5502)"/>
    <path fill-rule="evenodd" clip-rule="evenodd" d="M19.9912 12.0637C19.9958 12.1719 19.998 12.2804 19.998 12.3892C19.998 16.8024 16.4151 20.3852 12.0019 20.3852C7.58875 20.3852 4.00586 16.8024 4.00586 12.3892C4.00586 12.2804 4.00804 12.1719 4.01265 12.0637C4.24483 16.2723 7.73577 19.6182 12.0019 19.6182C16.2681 19.6182 19.759 16.2723 19.9912 12.0637ZM12.0019 4.27051C16.0562 4.27051 19.3478 7.56208 19.3478 11.6164C19.3478 15.6707 16.0562 18.9623 12.0019 18.9623C7.94761 18.9623 4.65605 15.6707 4.65605 11.6164C4.65605 7.56208 7.94761 4.27051 12.0019 4.27051ZM12.0019 5.48189C15.5184 5.48189 18.3735 8.33676 18.3735 11.8535C18.3735 15.3699 15.5184 18.225 12.0019 18.225C8.48549 18.225 5.63036 15.3699 5.63036 11.8535C5.63036 8.33676 8.48549 5.48189 12.0019 5.48189Z" fill="#B05D01"/>
    <path d="M12.0019 18.2256C15.5209 18.2256 18.3735 15.3729 18.3735 11.854C18.3735 8.33507 15.5209 5.48242 12.0019 5.48242C8.48302 5.48242 5.63037 8.33507 5.63037 11.854C5.63037 15.3729 8.48302 18.2256 12.0019 18.2256Z" fill="#F39E09"/>
    <path fill-rule="evenodd" clip-rule="evenodd" d="M17.9136 9.47432C18.0694 9.86071 18.1866 10.2616 18.2635 10.6711L10.4966 18.0454C10.0918 17.9471 9.69764 17.8091 9.31993 17.6334L17.9136 9.47432ZM15.4634 6.50417C16.2825 7.03598 16.9693 7.74784 17.4714 8.58544L8.45546 17.1457C7.64476 16.6012 6.96918 15.8786 6.48025 15.0332L15.4634 6.50417ZM13.4689 5.65137C13.8796 5.74847 14.2753 5.88519 14.6515 6.0577L6.07663 14.1991C5.92243 13.8106 5.80713 13.4077 5.73242 12.9965L13.4689 5.65137Z" fill="#FAA50F"/>
    <path fill-rule="evenodd" clip-rule="evenodd" d="M12.0001 3.61426C7.58478 3.61426 4 7.19905 4 11.6144C4 16.0297 7.58478 19.6143 12.0001 19.6143C16.4155 19.6143 20 16.0297 20 11.6144C20 7.19905 16.4155 3.61453 12.0001 3.61453V3.61426ZM12.0001 4.92574C15.6918 4.92574 18.6885 7.92301 18.6885 11.6144C18.6885 15.3058 15.6918 18.3028 12.0001 18.3028C8.30846 18.3028 5.31146 15.3061 5.31146 11.6144C5.31146 7.92274 8.30873 4.92574 12.0001 4.92574Z" fill="#FFD400"/>
    <mask id="mask0_916_5502" style="mask-type:luminance" maskUnits="userSpaceOnUse" x="4" y="3" width="16" height="17">
        <path d="M12 3.61426C7.58479 3.61426 4 7.19904 4 11.6143C4 16.0295 7.58479 19.6143 12 19.6143C16.4152 19.6143 20 16.0295 20 11.6143C20 7.19904 16.4152 3.61426 12 3.61426ZM12 4.92573C15.6915 4.92573 18.6885 7.92272 18.6885 11.6143C18.6885 15.3058 15.6915 18.3028 12 18.3028C8.30846 18.3028 5.31148 15.3058 5.31148 11.6143C5.31148 7.92272 8.30846 4.92573 12 4.92573Z" fill="white"/>
    </mask>
    <g mask="url(#mask0_916_5502)">
        <path fill-rule="evenodd" clip-rule="evenodd" d="M17.0654 4.24774L19.057 6.34426L3.80089 20.8426L1.80902 18.7461L17.0654 4.24774ZM15.6697 2.82715L16.433 3.63135L1.17636 18.1305L0.413086 17.326L15.6697 2.82715ZM19.724 7.01915L20.4873 7.82361L5.23092 22.322L4.46764 21.5175L19.724 7.01915Z" fill="#FFE66D"/>
    </g>
    <path fill-rule="evenodd" clip-rule="evenodd" d="M19.7292 13.6959C18.8132 17.1052 15.6982 19.6183 12.0008 19.6183C8.30345 19.6183 5.18846 17.1052 4.27246 13.6959C5.25654 17.0339 8.34604 19.4729 12.0008 19.4729C15.6556 19.4729 18.7451 17.0339 19.7292 13.6959ZM8.19359 6.11621C6.45192 7.32461 5.31079 9.33834 5.31079 11.6165C5.31079 15.3087 8.3086 18.3066 12.0008 18.3066C15.693 18.3066 18.6908 15.3087 18.6908 11.6165C18.6908 9.33834 17.5497 7.32461 15.808 6.11621C17.6303 7.34279 18.8302 9.42514 18.8302 11.7855C18.8302 15.5548 15.77 18.615 12.0008 18.615C8.23157 18.615 5.17138 15.5548 5.17138 11.7855C5.17138 9.42514 6.37136 7.34279 8.19359 6.11621Z" fill="#FFF5B3"/>
    <path fill-rule="evenodd" clip-rule="evenodd" d="M12.0019 14.5729L10.4675 13.0385L9.70037 13.8058L11.6183 15.7238C11.7201 15.8255 11.858 15.8827 12.0019 15.8827C12.1457 15.8827 12.2837 15.8255 12.3854 15.7238L14.3034 13.8058L13.5363 13.0385L12.0019 14.5729ZM8.933 11.5043L8.54946 11.8879C8.44776 11.9896 8.39062 12.1276 8.39062 12.2714C8.39062 12.4153 8.44776 12.5532 8.54946 12.655L8.933 13.0385L9.70037 12.2714L8.933 11.5043ZM15.0708 11.5043L14.3034 12.2714L15.0708 13.0385L15.4543 12.655C15.556 12.5532 15.6131 12.4153 15.6131 12.2714C15.6131 12.1276 15.556 11.9896 15.4543 11.8879L15.0708 11.5043ZM12.0019 11.5043L11.2348 12.2714L12.0019 13.0385L12.769 12.2714L12.0019 11.5043ZM9.70037 10.737L10.4675 11.5043L12.0019 9.96989L13.5363 11.5043L14.3034 10.737L12.3854 8.81899C12.2837 8.71729 12.1457 8.66016 12.0019 8.66016C11.858 8.66016 11.7201 8.71729 11.6183 8.81899L9.70037 10.737Z" fill="#E88102"/>
    <path fill-rule="evenodd" clip-rule="evenodd" d="M12.0019 14.03L10.4675 12.4955L9.70037 13.2629L11.6183 15.1809C11.7201 15.2826 11.858 15.3397 12.0019 15.3397C12.1457 15.3397 12.2837 15.2826 12.3854 15.1809L14.3034 13.2629L13.5363 12.4955L12.0019 14.03ZM8.933 10.9614L8.54946 11.3449C8.44776 11.4466 8.39062 11.5846 8.39062 11.7284C8.39062 11.8723 8.44776 12.0103 8.54946 12.112L8.933 12.4955L9.70037 11.7284L8.933 10.9614ZM15.0708 10.9614L14.3034 11.7284L15.0708 12.4955L15.4543 12.112C15.556 12.0103 15.6131 11.8723 15.6131 11.7284C15.6131 11.5846 15.556 11.4466 15.4543 11.3449L15.0708 10.9614ZM12.0019 10.9614L11.2348 11.7284L12.0019 12.4955L12.769 11.7284L12.0019 10.9614ZM9.70037 10.194L10.4675 10.9614L12.0019 9.42692L13.5363 10.9614L14.3034 10.194L12.3854 8.27602C12.2837 8.17432 12.1457 8.11719 12.0019 8.11719C11.858 8.11719 11.7201 8.17432 11.6183 8.27602L9.70037 10.194Z" fill="#FDD835"/>
    <defs>
        <linearGradient id="paint0_linear_916_5502" x1="21.05" y1="-5.72345e-07" x2="2.95001" y2="24" gradientUnits="userSpaceOnUse">
            <stop stop-color="#F0C94A"/>
            <stop offset="1" stop-color="#A29E8C"/>
        </linearGradient>
    </defs>
</svg>
