<svg width="20" height="20" viewBox="0 0 20 20" fill="none" xmlns="http://www.w3.org/2000/svg">
    <path d="M8.43775 14.5563C8.75799 14.5559 9.07224 14.4696 9.34775 14.3063L14.1778 11.4463C14.4592 11.275 14.6918 11.0341 14.8532 10.7469C15.0146 10.4597 15.0994 10.1358 15.0994 9.80632C15.0994 9.47685 15.0146 9.15293 14.8532 8.86571C14.6918 8.57849 14.4592 8.33764 14.1778 8.16632L9.34775 5.30632C9.0748 5.14635 8.76413 5.06202 8.44775 5.06202C8.13138 5.06202 7.82071 5.14635 7.54775 5.30632C7.25756 5.47268 7.01671 5.71307 6.84981 6.00295C6.68291 6.29284 6.59593 6.62182 6.59775 6.95632V12.6763C6.59593 13.0108 6.68291 13.3398 6.84981 13.6297C7.01671 13.9196 7.25756 14.16 7.54775 14.3263C7.81917 14.4796 8.12607 14.5589 8.43775 14.5563ZM8.09775 6.94632C8.09707 6.87664 8.11416 6.80794 8.1474 6.7467C8.18065 6.68546 8.22895 6.6337 8.28775 6.59632C8.33709 6.5848 8.38842 6.5848 8.43775 6.59632C8.48713 6.58515 8.53838 6.58515 8.58775 6.59632L13.4078 9.45632C13.4655 9.49463 13.5129 9.54664 13.5457 9.60771C13.5784 9.66878 13.5956 9.73701 13.5956 9.80632C13.5956 9.87562 13.5784 9.94386 13.5457 10.0049C13.5129 10.066 13.4655 10.118 13.4078 10.1563L8.58775 13.0163C8.5425 13.0437 8.49063 13.0581 8.43775 13.0581C8.38488 13.0581 8.33301 13.0437 8.28775 13.0163C8.22895 12.9789 8.18065 12.9272 8.1474 12.8659C8.11416 12.8047 8.09707 12.736 8.09775 12.6663V6.94632ZM4.84775 16.2863C5.00295 16.4118 5.10253 16.5934 5.12498 16.7917C5.14743 16.9901 5.09096 17.1893 4.96775 17.3463C4.89594 17.4334 4.80586 17.5036 4.70391 17.552C4.60195 17.6003 4.49061 17.6257 4.37775 17.6263C4.21076 17.6264 4.04864 17.57 3.91775 17.4663C3.63364 17.2427 3.36316 17.0022 3.10775 16.7463C2.9673 16.6057 2.88841 16.4151 2.88841 16.2163C2.88841 16.0176 2.9673 15.8269 3.10775 15.6863C3.24838 15.5459 3.439 15.467 3.63775 15.467C3.8365 15.467 4.02713 15.5459 4.16775 15.6863C4.38278 15.8991 4.60981 16.0995 4.84775 16.2863ZM2.77775 15.2863C2.6592 15.365 2.52001 15.4067 2.37775 15.4063C2.25256 15.4076 2.12909 15.377 2.0189 15.3176C1.90872 15.2581 1.81543 15.1717 1.74775 15.0663C1.54971 14.7655 1.37262 14.4515 1.21775 14.1263C1.17314 14.0391 1.14628 13.9439 1.13874 13.8462C1.13119 13.7486 1.14312 13.6504 1.17381 13.5574C1.20451 13.4643 1.25337 13.3783 1.31756 13.3043C1.38175 13.2304 1.46 13.1698 1.54775 13.1263C1.72559 13.0396 1.93046 13.0268 2.11775 13.0904C2.30505 13.1541 2.4596 13.2892 2.54775 13.4663C2.68048 13.7391 2.83079 14.003 2.99775 14.2563C3.05181 14.339 3.08901 14.4315 3.10721 14.5286C3.12542 14.6257 3.12426 14.7254 3.10382 14.822C3.08338 14.9187 3.04405 15.0103 2.9881 15.0917C2.93214 15.1731 2.86066 15.2426 2.77775 15.2963V15.2863ZM7.70775 18.5463C7.6563 18.6941 7.56049 18.8223 7.43342 18.9136C7.30635 19.0049 7.1542 19.0547 6.99775 19.0563C6.91541 19.0541 6.83413 19.0372 6.75775 19.0063C6.41482 18.8943 6.08059 18.7573 5.75775 18.5963C5.66436 18.5567 5.57998 18.4985 5.50973 18.4252C5.43948 18.352 5.38481 18.2653 5.34904 18.1704C5.31327 18.0754 5.29715 17.9742 5.30163 17.8728C5.30612 17.7714 5.33113 17.672 5.37515 17.5806C5.41917 17.4892 5.48128 17.4077 5.55772 17.3409C5.63417 17.2742 5.72336 17.2237 5.81989 17.1924C5.91643 17.1612 6.0183 17.1498 6.11935 17.1591C6.22039 17.1684 6.31851 17.198 6.40775 17.2463C6.68489 17.3775 6.9686 17.4943 7.25775 17.5963C7.35112 17.6287 7.43705 17.6795 7.51048 17.7456C7.58391 17.8117 7.64335 17.8919 7.6853 17.9814C7.72724 18.0709 7.75084 18.1678 7.75469 18.2666C7.75855 18.3653 7.74259 18.4638 7.70775 18.5563V18.5463ZM19.7078 9.79632C19.7051 12.3814 18.677 14.8598 16.8491 16.6877C15.0212 18.5156 12.5428 19.5437 9.95775 19.5463C9.5871 19.5513 9.21646 19.5346 8.84775 19.4963C8.64946 19.4737 8.46805 19.3739 8.34268 19.2186C8.21732 19.0633 8.15808 18.8649 8.17775 18.6663C8.20034 18.4688 8.30046 18.2882 8.45611 18.1645C8.61175 18.0407 8.81018 17.9838 9.00775 18.0063C9.30775 18.0063 9.61775 18.0563 9.92775 18.0563C11.3542 18.0624 12.7578 17.6985 14.0017 17.0002C15.2455 16.3019 16.287 15.293 17.0246 14.0721C17.7621 12.8511 18.1705 11.4597 18.2098 10.0338C18.2491 8.60793 17.9181 7.19618 17.2489 5.93641C16.5798 4.67664 15.5955 3.61189 14.392 2.84609C13.1886 2.08029 11.8071 1.63961 10.3825 1.56707C8.95791 1.49452 7.53884 1.79259 6.26382 2.43219C4.98879 3.07178 3.90139 4.03103 3.10775 5.21632L4.95775 4.80632C5.15135 4.76136 5.35488 4.79508 5.52363 4.90008C5.69238 5.00508 5.81256 5.17277 5.85775 5.36632C5.88154 5.46155 5.88614 5.56057 5.87129 5.6576C5.85643 5.75463 5.82242 5.84774 5.77124 5.9315C5.72005 6.01526 5.65271 6.088 5.57314 6.14548C5.49357 6.20296 5.40335 6.24404 5.30775 6.26632L1.76775 7.11632H1.59775C1.42229 7.11985 1.25115 7.06175 1.11411 6.95212C0.977072 6.84249 0.882818 6.68827 0.847754 6.51632L0.0177542 2.98632C-0.0247851 2.79165 0.00979465 2.58807 0.114226 2.41837C0.218656 2.24867 0.384806 2.12607 0.577754 2.07632C0.771353 2.03136 0.974881 2.06508 1.14363 2.17008C1.31238 2.27508 1.43256 2.44277 1.47775 2.63632L1.84775 4.34632C3.00903 2.60016 4.70286 1.27543 6.67737 0.569111C8.65189 -0.137212 10.8016 -0.187408 12.807 0.425987C14.8123 1.03938 16.5661 2.28361 17.8076 3.97366C19.0491 5.66371 19.712 7.70932 19.6978 9.80632L19.7078 9.79632Z" fill="#ECECEC"/>
</svg>
