<svg width="36" height="36" viewBox="0 0 36 36" fill="none" xmlns="http://www.w3.org/2000/svg">
    <g clip-path="url(#clip0_97_4275)">
        <path d="M19.9194 9.20124C20.254 9.56845 20.6869 9.83198 21.1668 9.96057C21.6466 10.0892 22.1533 10.0774 22.6267 9.92676C22.971 9.81722 23.3344 9.78073 23.6936 9.81961C24.0528 9.8585 24.4 9.97191 24.7129 10.1526C25.0258 10.3333 25.2975 10.5772 25.5107 10.8689C25.724 11.1606 25.874 11.4936 25.9512 11.8465C26.0574 12.3319 26.3005 12.7765 26.6518 13.1278C27.0031 13.4791 27.4478 13.7223 27.9331 13.8284C28.2861 13.9056 28.619 14.0556 28.9107 14.2689C29.2023 14.4821 29.4463 14.7539 29.627 15.0668C29.8076 15.3797 29.921 15.7268 29.9598 16.086C29.9987 16.4452 29.9621 16.8086 29.8525 17.1529C29.7017 17.6263 29.69 18.133 29.8186 18.6129C29.9472 19.0928 30.2107 19.5257 30.578 19.8603C30.8451 20.1036 31.0585 20.4 31.2045 20.7305C31.3505 21.061 31.4259 21.4183 31.4259 21.7797C31.4259 22.141 31.3505 22.4983 31.2045 22.8288C31.0585 23.1593 30.8451 23.4557 30.578 23.6991C30.2108 24.0337 29.9473 24.4666 29.8187 24.9465C29.6901 25.4263 29.7018 25.933 29.8525 26.4064C29.962 26.7507 29.9985 27.1141 29.9596 27.4733C29.9208 27.8325 29.8074 28.1797 29.6267 28.4926C29.446 28.8055 29.202 29.0772 28.9103 29.2904C28.6187 29.5037 28.2857 29.6537 27.9327 29.7309C27.4474 29.8371 27.0027 30.0802 26.6514 30.4315C26.3001 30.7828 26.057 31.2275 25.9509 31.7128C25.8737 32.0658 25.7236 32.3987 25.5104 32.6904C25.2971 32.982 25.0254 33.226 24.7125 33.4067C24.3996 33.5873 24.0524 33.7007 23.6932 33.7395C23.334 33.7783 22.9706 33.7418 22.6264 33.6322C22.153 33.4814 21.6463 33.4696 21.1664 33.5982C20.6865 33.7268 20.2536 33.9904 19.919 34.3577C19.6757 34.6248 19.3793 34.8382 19.0488 34.9842C18.7183 35.1302 18.3609 35.2056 17.9996 35.2056C17.6383 35.2056 17.2809 35.1302 16.9504 34.9842C16.6199 34.8382 16.3235 34.6248 16.0802 34.3577C15.7456 33.9905 15.3127 33.727 14.8328 33.5984C14.3529 33.4698 13.8462 33.4815 13.3728 33.6322C13.0285 33.7417 12.6651 33.7782 12.3059 33.7393C11.9467 33.7005 11.5996 33.587 11.2867 33.4064C10.9738 33.2257 10.702 32.9817 10.4888 32.69C10.2756 32.3984 10.1255 32.0654 10.0483 31.7124C9.94219 31.2271 9.69906 30.7824 9.34777 30.4311C8.99648 30.0798 8.55179 29.8367 8.06646 29.7306C7.71351 29.6534 7.38055 29.5033 7.08888 29.2901C6.79721 29.0768 6.55325 28.8051 6.3726 28.4922C6.19195 28.1793 6.07858 27.8321 6.03974 27.4729C6.00091 27.1137 6.03746 26.7503 6.14706 26.4061C6.29783 25.9327 6.30961 25.426 6.18101 24.9461C6.05241 24.4662 5.78883 24.0333 5.42154 23.6987C5.15444 23.4554 4.94106 23.159 4.79506 22.8285C4.64905 22.498 4.57364 22.1406 4.57364 21.7793C4.57364 21.418 4.64905 21.0606 4.79506 20.7301C4.94106 20.3996 5.15444 20.1032 5.42154 19.8599C5.78875 19.5253 6.05228 19.0924 6.18088 18.6125C6.30947 18.1326 6.29773 17.6259 6.14706 17.1525C6.03752 16.8082 6.00103 16.4448 6.03991 16.0856C6.0788 15.7264 6.19221 15.3793 6.37289 15.0664C6.55357 14.7535 6.79755 14.4817 7.08923 14.2685C7.38091 14.0553 7.71387 13.9052 8.06683 13.828C8.55216 13.7219 8.99685 13.4788 9.34814 13.1275C9.69942 12.7762 9.94256 12.3315 10.0487 11.8462C10.1259 11.4932 10.2759 11.1602 10.4892 10.8686C10.7024 10.5769 10.9742 10.333 11.2871 10.1523C11.6 9.97165 11.9471 9.85828 12.3063 9.81944C12.6655 9.78061 13.0289 9.81716 13.3732 9.92676C13.8466 10.0775 14.3533 10.0893 14.8332 9.96071C15.3131 9.83211 15.746 9.56852 16.0806 9.20124C16.3239 8.93419 16.6203 8.72085 16.9508 8.57488C17.2813 8.42891 17.6387 8.35352 18 8.35352C18.3613 8.35352 18.7186 8.42891 19.0491 8.57488C19.3796 8.72085 19.676 8.93419 19.9194 9.20124Z" fill="#FBBC05"/>
        <path d="M29.8526 17.1527C29.9621 16.8084 29.9986 16.445 29.9597 16.0858C29.9208 15.7266 29.8074 15.3794 29.6267 15.0666C29.4461 14.7537 29.2021 14.4819 28.9104 14.2687C28.6187 14.0554 28.2858 13.9054 27.9328 13.8282C27.6232 13.7585 27.329 13.6324 27.0651 13.4561C24.8684 18.1548 18.4897 29.6881 8.716 29.9706C9.05189 30.1461 9.34526 30.393 9.57545 30.694C9.80564 30.995 9.96707 31.3428 10.0484 31.713C10.1256 32.0659 10.2756 32.3989 10.4889 32.6905C10.7021 32.9822 10.9739 33.2262 11.2868 33.4068C11.5997 33.5875 11.9468 33.7008 12.306 33.7397C12.6653 33.7785 13.0286 33.742 13.3729 33.6324C13.8463 33.4816 14.353 33.4697 14.8329 33.5984C15.3128 33.727 15.7457 33.9906 16.0803 34.3579C16.3236 34.625 16.62 34.8384 16.9505 34.9844C17.281 35.1304 17.6383 35.2058 17.9997 35.2058C18.361 35.2058 18.7183 35.1304 19.0488 34.9844C19.3793 34.8384 19.6757 34.625 19.9191 34.3579C20.2536 33.9906 20.6865 33.727 21.1664 33.5984C21.6463 33.4697 22.153 33.4816 22.6264 33.6324C22.9707 33.742 23.3341 33.7785 23.6933 33.7397C24.0525 33.7008 24.3997 33.5875 24.7126 33.4068C25.0255 33.2262 25.2972 32.9822 25.5105 32.6905C25.7237 32.3989 25.8737 32.0659 25.9509 31.713C26.0571 31.2276 26.3002 30.7829 26.6515 30.4317C27.0028 30.0804 27.4475 29.8372 27.9328 29.7311C28.2858 29.6539 28.6187 29.5039 28.9104 29.2906C29.202 29.0774 29.446 28.8056 29.6267 28.4927C29.8073 28.1798 29.9207 27.8327 29.9595 27.4735C29.9984 27.1142 29.9618 26.7509 29.8522 26.4066C29.7014 25.9332 29.6896 25.4265 29.8182 24.9466C29.9468 24.4667 30.2104 24.0338 30.5777 23.6992C30.8448 23.4559 31.0582 23.1595 31.2042 22.829C31.3502 22.4985 31.4256 22.1412 31.4256 21.7798C31.4256 21.4185 31.3502 21.0612 31.2042 20.7307C31.0582 20.4002 30.8448 20.1038 30.5777 19.8604C30.2106 19.5257 29.9471 19.0927 29.8186 18.6128C29.6901 18.1328 29.7019 17.6261 29.8526 17.1527Z" fill="#F4950C"/>
        <path d="M27.9331 29.7316C27.4478 29.8368 27.0031 30.0795 26.652 30.4306C26.3009 30.7816 26.0583 31.2264 25.9531 31.7116C25.8752 32.0646 25.7246 32.3975 25.511 32.6892C25.2973 32.9808 25.0253 33.2247 24.7122 33.4055C24.3992 33.5862 24.0519 33.6997 23.6925 33.7389C23.3331 33.778 22.9696 33.7419 22.6249 33.6329C22.1523 33.4818 21.6462 33.4697 21.1669 33.598C20.6876 33.7263 20.2552 33.9896 19.9212 34.3565C19.6776 34.6238 19.3809 34.8374 19.0501 34.9835C18.7193 35.1296 18.3616 35.205 18 35.205C17.6383 35.205 17.2807 35.1296 16.9498 34.9835C16.619 34.8374 16.3223 34.6238 16.0787 34.3565C15.7447 33.9896 15.3124 33.7263 14.8331 33.598C14.3537 33.4697 13.8477 33.4818 13.375 33.6329C13.0304 33.7419 12.6668 33.7779 12.3075 33.7388C11.9481 33.6996 11.6008 33.586 11.2878 33.4053C10.9747 33.2246 10.7027 32.9807 10.4891 32.6891C10.2754 32.3975 10.1248 32.0646 10.0468 31.7116C9.98992 31.4476 9.89068 31.1946 9.75297 30.9622C9.51005 30.539 9.15041 30.1947 8.71704 29.9704C12.4016 29.8639 15.6048 28.1557 18.2828 25.8193H29.7405C29.7552 26.0177 29.7934 26.2139 29.8543 26.4034C29.9639 26.7481 30.0003 27.1118 29.9614 27.4713C29.9225 27.8308 29.809 28.1783 29.6282 28.4915C29.4474 28.8047 29.2032 29.0767 28.9114 29.2903C28.6195 29.5038 28.2863 29.6541 27.9331 29.7316Z" fill="#F4950C"/>
        <path d="M17.9999 32.4313C23.8835 32.4313 28.6531 27.6617 28.6531 21.7781C28.6531 15.8946 23.8835 11.125 17.9999 11.125C12.1164 11.125 7.3468 15.8946 7.3468 21.7781C7.3468 27.6617 12.1164 32.4313 17.9999 32.4313Z" fill="#FFE161"/>
        <path d="M10.8896 29.7098C15.2691 33.6375 22.0034 33.2713 25.9311 28.8921C29.4268 24.9941 29.5715 19.1338 26.2724 15.0684C25.7143 23.6155 18.7347 29.8604 10.8896 29.7098Z" fill="#FBBC05"/>
        <path d="M18.7348 24.7173C18.5399 24.7173 18.353 24.6399 18.2152 24.5021C18.0775 24.3643 18.0001 24.1775 18.0001 23.9826V18.105C18.0001 17.9102 18.0775 17.7233 18.2152 17.5855C18.353 17.4477 18.5399 17.3703 18.7348 17.3703C18.9296 17.3703 19.1165 17.4477 19.2543 17.5855C19.392 17.7233 19.4695 17.9102 19.4695 18.105V23.9826C19.4695 24.1775 19.392 24.3643 19.2543 24.5021C19.1165 24.6399 18.9296 24.7173 18.7348 24.7173ZM21.6735 24.7173C21.4787 24.7173 21.2918 24.6399 21.154 24.5021C21.0163 24.3643 20.9389 24.1775 20.9389 23.9826V18.105C20.9389 17.9102 21.0163 17.7233 21.154 17.5855C21.2918 17.4477 21.4787 17.3703 21.6735 17.3703H23.8776C24.4622 17.3703 25.0228 17.6025 25.4362 18.0159C25.8495 18.4292 26.0817 18.9898 26.0817 19.5744C26.0817 20.159 25.8495 20.7196 25.4362 21.1329C25.0228 21.5463 24.4622 21.7785 23.8776 21.7785H22.4082V23.9826C22.4082 24.1775 22.3308 24.3643 22.1931 24.5021C22.0553 24.6399 21.8684 24.7173 21.6735 24.7173ZM22.4082 20.3091H23.8776C24.0725 20.3091 24.2594 20.2317 24.3972 20.0939C24.5349 19.9561 24.6123 19.7693 24.6123 19.5744C24.6123 19.3796 24.5349 19.1927 24.3972 19.0549C24.2594 18.9171 24.0725 18.8397 23.8776 18.8397H22.4082V20.3091ZM13.9592 24.7173C13.8027 24.7173 13.6502 24.6673 13.524 24.5746C13.3979 24.4819 13.3047 24.3513 13.2579 24.2019L11.4212 18.3243C11.363 18.1383 11.3811 17.9369 11.4715 17.7642C11.5619 17.5916 11.7172 17.4619 11.9032 17.4037C12.0891 17.3456 12.2906 17.3637 12.4633 17.4541C12.6359 17.5444 12.7656 17.6997 12.8237 17.8857L13.9592 21.5195L15.0947 17.8857C15.1528 17.6997 15.2824 17.5444 15.455 17.454C15.6276 17.3636 15.8291 17.3454 16.0151 17.4036C16.2011 17.4617 16.3564 17.5913 16.4468 17.7639C16.5372 17.9365 16.5553 18.138 16.4972 18.324L14.6605 24.2015C14.6138 24.351 14.5206 24.4817 14.3945 24.5745C14.2683 24.6672 14.1158 24.7173 13.9592 24.7173Z" fill="#FBBC05"/>
        <path d="M18.3674 24.35C18.1725 24.35 17.9857 24.2726 17.8479 24.1348C17.7101 23.997 17.6327 23.8101 17.6327 23.6153V17.7377C17.6327 17.5428 17.7101 17.356 17.8479 17.2182C17.9857 17.0804 18.1725 17.003 18.3674 17.003C18.5622 17.003 18.7491 17.0804 18.8869 17.2182C19.0247 17.356 19.1021 17.5428 19.1021 17.7377V23.6153C19.1021 23.8101 19.0247 23.997 18.8869 24.1348C18.7491 24.2726 18.5622 24.35 18.3674 24.35ZM21.3062 24.35C21.1113 24.35 20.9245 24.2726 20.7867 24.1348C20.6489 23.997 20.5715 23.8101 20.5715 23.6153V17.7377C20.5715 17.5428 20.6489 17.356 20.7867 17.2182C20.9245 17.0804 21.1113 17.003 21.3062 17.003H23.5103C24.0948 17.003 24.6555 17.2352 25.0688 17.6486C25.4822 18.0619 25.7144 18.6225 25.7144 19.2071C25.7144 19.7917 25.4822 20.3523 25.0688 20.7656C24.6555 21.179 24.0948 21.4112 23.5103 21.4112H22.0409V23.6153C22.0409 23.8101 21.9635 23.997 21.8257 24.1348C21.6879 24.2726 21.501 24.35 21.3062 24.35ZM22.0409 19.9418H23.5103C23.7051 19.9418 23.892 19.8644 24.0298 19.7266C24.1676 19.5888 24.245 19.4019 24.245 19.2071C24.245 19.0122 24.1676 18.8254 24.0298 18.6876C23.892 18.5498 23.7051 18.4724 23.5103 18.4724H22.0409V19.9418ZM13.5918 24.35C13.4353 24.35 13.2828 24.3 13.1567 24.2073C13.0305 24.1146 12.9373 23.984 12.8906 23.8346L11.0538 17.957C10.9957 17.771 11.0138 17.5695 11.1041 17.3969C11.1945 17.2243 11.3498 17.0946 11.5358 17.0364C11.7218 16.9783 11.9232 16.9964 12.0959 17.0867C12.2685 17.1771 12.3982 17.3324 12.4564 17.5184L13.5918 21.1522L14.7273 17.5184C14.7561 17.4263 14.8028 17.3408 14.8646 17.2667C14.9265 17.1927 15.0023 17.1315 15.0878 17.0867C15.1733 17.042 15.2667 17.0145 15.3628 17.0059C15.4589 16.9972 15.5558 17.0076 15.6479 17.0364C15.74 17.0652 15.8255 17.1119 15.8996 17.1737C15.9736 17.2356 16.0348 17.3114 16.0795 17.3969C16.1243 17.4824 16.1518 17.5758 16.1604 17.6719C16.169 17.768 16.1587 17.8649 16.1299 17.957L14.2931 23.8346C14.2464 23.984 14.1531 24.1146 14.027 24.2073C13.9008 24.3 13.7484 24.35 13.5918 24.35Z" fill="#4C4372"/>
        <path d="M18.277 0.292206L19.2497 2.01287C19.3022 2.10544 19.3922 2.17083 19.4966 2.19214L21.4336 2.58557C21.4973 2.59851 21.5565 2.62815 21.6051 2.67146C21.6536 2.71477 21.6898 2.7702 21.7099 2.83207C21.73 2.89395 21.7333 2.96005 21.7195 3.02362C21.7057 3.0872 21.6752 3.14596 21.6312 3.1939L20.2952 4.65081C20.2597 4.6896 20.2329 4.73553 20.2166 4.78552C20.2003 4.83551 20.1949 4.8884 20.2008 4.94065L20.4252 6.9045C20.4326 6.96914 20.4227 7.03458 20.3965 7.09412C20.3703 7.15367 20.3287 7.20519 20.2761 7.24341C20.2234 7.28164 20.1616 7.30519 20.0968 7.31167C20.0321 7.31815 19.9668 7.30733 19.9076 7.2803L18.1091 6.46001C18.0612 6.43822 18.0092 6.42695 17.9566 6.42695C17.904 6.42695 17.852 6.43822 17.8042 6.46001L16.0056 7.2803C15.9464 7.30735 15.8811 7.31818 15.8163 7.31169C15.7515 7.30519 15.6897 7.2816 15.637 7.24333C15.5844 7.20506 15.5428 7.15349 15.5166 7.09389C15.4905 7.03429 15.4806 6.9688 15.488 6.90413L15.7125 4.94028C15.7185 4.88802 15.7131 4.83509 15.6968 4.78508C15.6805 4.73507 15.6537 4.68915 15.6181 4.65044L14.282 3.19353C14.2381 3.14559 14.2076 3.08683 14.1938 3.02326C14.1799 2.95968 14.1833 2.89358 14.2034 2.83171C14.2235 2.76983 14.2596 2.71441 14.3082 2.6711C14.3567 2.62778 14.4159 2.59814 14.4797 2.5852L16.4167 2.19177C16.521 2.17046 16.611 2.10508 16.6636 2.0125L17.6363 0.291839C17.6683 0.234971 17.7148 0.187642 17.7711 0.154716C17.8274 0.12179 17.8915 0.104455 17.9567 0.104492C18.022 0.10453 18.086 0.121939 18.1423 0.154929C18.1986 0.18792 18.2451 0.235302 18.277 0.292206ZM34.2695 6.25796L34.1391 7.28177C34.1324 7.33396 34.137 7.38698 34.1526 7.43724C34.1682 7.4875 34.1944 7.53382 34.2295 7.57308L34.9172 8.34267C34.9605 8.39117 34.9902 8.45031 35.0032 8.51406C35.0163 8.5778 35.0121 8.64385 34.9912 8.70546C34.9703 8.76708 34.9335 8.82204 34.8844 8.86473C34.8353 8.90742 34.7757 8.9363 34.7118 8.94843L33.6976 9.14092C33.6459 9.15073 33.5969 9.17151 33.5539 9.20187C33.511 9.23222 33.475 9.27145 33.4485 9.31688L32.9291 10.2088C32.8963 10.265 32.8493 10.3116 32.7927 10.3436C32.7361 10.3757 32.672 10.3922 32.6069 10.3914C32.5419 10.3905 32.4782 10.3724 32.4224 10.339C32.3667 10.3055 32.3208 10.2578 32.2895 10.2007L31.7932 9.29558C31.7679 9.24946 31.7331 9.20933 31.6909 9.17789C31.6488 9.14645 31.6003 9.12445 31.5489 9.11337L30.5402 8.8948C30.4766 8.88107 30.4178 8.85068 30.3697 8.80675C30.3217 8.76282 30.2862 8.70692 30.2669 8.64478C30.2476 8.58263 30.2451 8.51647 30.2598 8.45307C30.2744 8.38966 30.3057 8.33128 30.3503 8.2839L31.0578 7.53193C31.0939 7.49364 31.1213 7.44804 31.1382 7.39822C31.1551 7.34841 31.1611 7.29554 31.1559 7.2432L31.0519 6.21609C31.0453 6.15137 31.056 6.08607 31.0829 6.02685C31.1099 5.96763 31.152 5.91662 31.2051 5.87904C31.2582 5.84145 31.3203 5.81864 31.3851 5.81293C31.4499 5.80721 31.5151 5.81881 31.5739 5.84653L32.5073 6.28698C32.5549 6.3095 32.6067 6.32151 32.6594 6.32221C32.712 6.32291 32.7641 6.31227 32.8122 6.29103L33.7567 5.87482C33.8163 5.84836 33.8818 5.83824 33.9466 5.84552C34.0114 5.8528 34.0731 5.8772 34.1253 5.91622C34.1775 5.95524 34.2184 6.00747 34.2438 6.06753C34.2691 6.12759 34.278 6.19333 34.2695 6.25796ZM4.75371 6.25796L4.6233 7.28177C4.61662 7.33396 4.62123 7.38698 4.63683 7.43724C4.65242 7.4875 4.67862 7.53382 4.71367 7.57308L5.40135 8.34267C5.44471 8.39117 5.47442 8.45031 5.48743 8.51406C5.50044 8.5778 5.49629 8.64385 5.4754 8.70546C5.45452 8.76708 5.41764 8.82204 5.36855 8.86473C5.31946 8.90742 5.25992 8.9363 5.196 8.94843L4.18175 9.14092C4.13006 9.15073 4.08108 9.17151 4.03812 9.20187C3.99515 9.23222 3.9592 9.27145 3.93269 9.31688L3.41325 10.2088C3.3805 10.2649 3.33345 10.3114 3.27689 10.3434C3.22033 10.3754 3.15629 10.3918 3.0913 10.391C3.02632 10.3902 2.96271 10.3722 2.90698 10.3387C2.85125 10.3053 2.80538 10.2577 2.77406 10.2007L2.27778 9.29558C2.2525 9.24946 2.21761 9.20933 2.17546 9.17789C2.13331 9.14645 2.08489 9.12445 2.03349 9.11337L1.02475 8.8948C0.961134 8.88107 0.902312 8.85068 0.854299 8.80675C0.806286 8.76282 0.770805 8.70692 0.751485 8.64478C0.732166 8.58263 0.729701 8.51647 0.744345 8.45307C0.758988 8.38966 0.790213 8.33128 0.834826 8.2839L1.54234 7.53193C1.57841 7.49364 1.60584 7.44804 1.62276 7.39822C1.63968 7.34841 1.6457 7.29554 1.64042 7.2432L1.53646 6.21609C1.52987 6.15137 1.54058 6.08607 1.5675 6.02685C1.59441 5.96763 1.63657 5.91662 1.68966 5.87904C1.74275 5.84145 1.80487 5.81864 1.86967 5.81293C1.93447 5.80721 1.99962 5.81881 2.05847 5.84653L2.9919 6.28698C3.03946 6.3095 3.0913 6.32151 3.14391 6.32221C3.19652 6.32291 3.24867 6.31227 3.2968 6.29103L4.24126 5.87482C4.30082 5.84845 4.36633 5.83841 4.43106 5.84573C4.49579 5.85304 4.55741 5.87746 4.60958 5.91647C4.66175 5.95548 4.7026 6.00767 4.72793 6.06768C4.75326 6.1277 4.76216 6.19337 4.75371 6.25796Z" fill="#FFE161"/>
        <path d="M0.367199 33.9017H6.61214C6.807 33.9017 6.99387 33.8243 7.13166 33.6865C7.26944 33.5487 7.34684 33.3618 7.34684 33.167V28.7588H0.367199C0.296939 28.7588 0.228153 28.7789 0.169 28.8169C0.109846 28.8548 0.0628066 28.9089 0.0334588 28.9727C0.00411111 29.0365 -0.00631355 29.1075 0.00342103 29.177C0.0131556 29.2466 0.0426413 29.312 0.0883811 29.3653L1.36272 30.8523C1.47684 30.9855 1.53956 31.1551 1.53956 31.3304C1.53956 31.5058 1.47684 31.6754 1.36272 31.8085L0.0883811 33.2956C0.0427556 33.3489 0.0133678 33.4142 0.00369639 33.4837C-0.00597504 33.5532 0.00447477 33.6241 0.0338088 33.6879C0.0631429 33.7516 0.110133 33.8057 0.169217 33.8435C0.228302 33.8814 0.297006 33.9016 0.367199 33.9017Z" fill="#FF1849"/>
        <path d="M7.34691 28.7588V33.167C7.34691 33.3618 7.2695 33.5487 7.13172 33.6865C6.99394 33.8243 6.80706 33.9017 6.61221 33.9017H5.51016L3.96031 32.8687C3.75906 32.7345 3.59404 32.5527 3.47991 32.3395C3.36578 32.1262 3.30606 31.888 3.30606 31.6462V28.7588H7.34691Z" fill="#E00E45"/>
        <path d="M7.3468 30.9619V33.166C7.34754 33.2655 7.32731 33.364 7.28743 33.4552C7.24756 33.5463 7.18893 33.628 7.11537 33.695C7.11537 33.695 5.51005 32.7987 4.77535 32.4313C4.41388 32.2506 4.04065 32.1007 4.04065 31.6966C4.04123 31.5019 4.11882 31.3154 4.25648 31.1777C4.39414 31.0401 4.58067 30.9625 4.77535 30.9619H7.3468Z" fill="#BF0640"/>
        <path d="M4.77535 30.9619C4.58067 30.9625 4.39414 31.0401 4.25648 31.1777C4.11882 31.3154 4.04123 31.5019 4.04065 31.6966V30.9619H4.77535Z" fill="#BF0640"/>
        <path d="M35.6327 33.9017H29.3878C29.1929 33.9017 29.006 33.8243 28.8683 33.6865C28.7305 33.5487 28.6531 33.3618 28.6531 33.167V28.7588H35.6327C35.703 28.7588 35.7718 28.7789 35.8309 28.8169C35.8901 28.8548 35.9371 28.9089 35.9665 28.9727C35.9958 29.0365 36.0062 29.1075 35.9965 29.177C35.9868 29.2466 35.9573 29.312 35.9115 29.3653L34.6372 30.8523C34.5231 30.9855 34.4604 31.1551 34.4604 31.3304C34.4604 31.5058 34.5231 31.6754 34.6372 31.8085L35.9115 33.2956C35.9572 33.3489 35.9865 33.4142 35.9962 33.4837C36.0059 33.5532 35.9954 33.6241 35.9661 33.6879C35.9368 33.7516 35.8898 33.8057 35.8307 33.8435C35.7716 33.8814 35.7029 33.9016 35.6327 33.9017Z" fill="#FF1849"/>
        <path d="M28.6531 28.7588V33.167C28.6531 33.3618 28.7305 33.5487 28.8683 33.6865C29.006 33.8243 29.1929 33.9017 29.3878 33.9017H35.2654C31.2245 32.0649 32.6939 28.7588 32.6939 28.7588H28.6531Z" fill="#E00E45"/>
        <path d="M28.6531 30.9619V33.166C28.6524 33.2655 28.6726 33.364 28.7125 33.4552C28.7523 33.5463 28.811 33.628 28.8845 33.695C28.8845 33.695 30.4898 32.7987 31.2245 32.4313C31.586 32.2506 31.9592 32.1007 31.9592 31.6966C31.9587 31.5019 31.8811 31.3154 31.7434 31.1777C31.6058 31.0401 31.4192 30.9625 31.2245 30.9619H28.6531Z" fill="#BF0640"/>
        <path d="M31.2245 30.9619C31.4192 30.9625 31.6057 31.0401 31.7434 31.1777C31.881 31.3154 31.9586 31.5019 31.9592 31.6966V30.9619H31.2245Z" fill="#BF0640"/>
        <path d="M31.2245 25.8193H4.77535C4.58049 25.8193 4.39362 25.8967 4.25584 26.0345C4.11806 26.1723 4.04065 26.3592 4.04065 26.554V31.6969C4.04123 31.5023 4.11882 31.3157 4.25648 31.1781C4.39414 31.0404 4.58067 30.9628 4.77535 30.9622H31.2245C31.4192 30.9628 31.6057 31.0404 31.7434 31.1781C31.8811 31.3157 31.9586 31.5023 31.9592 31.6969V26.554C31.9592 26.3592 31.8818 26.1723 31.744 26.0345C31.6063 25.8967 31.4194 25.8193 31.2245 25.8193Z" fill="#FF1849"/>
        <path d="M19.102 30.9622H31.2245C31.4192 30.9628 31.6057 31.0404 31.7434 31.1781C31.8811 31.3157 31.9586 31.5023 31.9592 31.6969V26.554C31.9592 26.3592 31.8818 26.1723 31.744 26.0345C31.6063 25.8967 31.4194 25.8193 31.2245 25.8193H25.7143C24.9796 27.2887 23.2192 29.5894 19.102 30.9622Z" fill="#E00E45"/>
        <path d="M20.4255 6.90476L20.2011 4.94091C20.1951 4.88865 20.2004 4.83572 20.2167 4.78571C20.233 4.7357 20.2599 4.68978 20.2955 4.65107L21.6315 3.19416C21.6755 3.14622 21.706 3.08746 21.7198 3.02388C21.7336 2.96031 21.7303 2.89421 21.7102 2.83233C21.6901 2.77046 21.6539 2.71503 21.6054 2.67172C21.5568 2.62841 21.4977 2.59877 21.4339 2.58583L19.862 2.2666C19.8918 2.97816 19.462 4.15368 18.3673 5.24838C17.5322 5.99302 16.5522 6.55695 15.4887 6.90476C15.4813 6.9694 15.4913 7.03484 15.5175 7.09438C15.5437 7.15393 15.5852 7.20545 15.6379 7.24367C15.6905 7.2819 15.7524 7.30545 15.8171 7.31193C15.8818 7.31841 15.9471 7.30759 16.0063 7.28056L17.8049 6.46027C17.9018 6.41618 18.0128 6.41618 18.1098 6.46027L19.9083 7.28056C19.9675 7.3075 20.0327 7.31825 20.0974 7.31173C20.1621 7.30521 20.2239 7.28163 20.2765 7.24342C20.3291 7.20521 20.3706 7.15373 20.3968 7.09423C20.4229 7.03473 20.4329 6.96935 20.4255 6.90476ZM34.9175 8.34257L34.2294 7.57297C34.1944 7.53373 34.1681 7.48741 34.1526 7.43715C34.137 7.38688 34.1324 7.33386 34.1391 7.28166L34.2695 6.25749C34.276 6.20568 34.2713 6.15309 34.2558 6.10324C34.2403 6.05338 34.2142 6.00744 34.1795 5.96849C34.1447 5.92954 34.102 5.89849 34.0542 5.87744C34.0064 5.85638 33.9547 5.84581 33.9025 5.84642C34.0608 6.53337 33.7005 8.28269 33.0613 8.92151C32.9097 9.09283 32.7171 9.22292 32.5016 9.29963C32.286 9.37633 32.0546 9.39715 31.8288 9.36012L32.2902 10.2003C32.3216 10.2572 32.3675 10.3048 32.4232 10.3382C32.479 10.3716 32.5426 10.3897 32.6076 10.3905C32.6726 10.3913 32.7367 10.3749 32.7933 10.3429C32.8499 10.3109 32.897 10.2645 32.9298 10.2083L33.4492 9.31641C33.5028 9.22457 33.5936 9.16029 33.6982 9.14045L34.7125 8.94796C34.7763 8.93574 34.8357 8.90681 34.8847 8.86412C34.9337 8.82144 34.9705 8.76652 34.9914 8.70498C35.0122 8.64343 35.0163 8.57746 35.0034 8.5138C34.9904 8.45013 34.9607 8.39104 34.9175 8.34257ZM3.66117 8.80983C2.6594 9.0971 1.32703 8.74592 0.735962 8.55747C0.740468 8.63755 0.771169 8.71394 0.82334 8.77488C0.87551 8.83581 0.94626 8.87791 1.0247 8.89469L2.03344 9.11327C2.08484 9.12434 2.13326 9.14634 2.17541 9.17778C2.21756 9.20922 2.25246 9.24936 2.27773 9.29547L2.77402 10.2006C2.80539 10.2576 2.85129 10.3052 2.90705 10.3386C2.96281 10.372 3.02644 10.39 3.09144 10.3909C3.15645 10.3917 3.22051 10.3753 3.27709 10.3433C3.33368 10.3113 3.38077 10.2648 3.41357 10.2087L3.93301 9.31678C3.98664 9.22494 4.07737 9.16065 4.18207 9.14082L5.19632 8.94832C5.26024 8.93619 5.31978 8.90731 5.36887 8.86462C5.41797 8.82193 5.45484 8.76697 5.47573 8.70536C5.49661 8.64374 5.50076 8.57769 5.48775 8.51395C5.47474 8.45021 5.44503 8.39106 5.40167 8.34257L4.97959 7.87015C4.65733 8.32177 4.19321 8.65256 3.66117 8.80983Z" fill="#FBBC05"/>
    </g>
    <defs>
        <clipPath id="clip0_97_4275">
            <rect width="36" height="36" fill="white"/>
        </clipPath>
    </defs>
</svg>
