<svg width="18" height="18" viewBox="0 0 18 18" fill="none" xmlns="http://www.w3.org/2000/svg">
    <path d="M9.45827 17.4881L1 7.35933L3.83857 5.9209L5.28431 7.35933L8.81177 10.1516L9.45827 17.4881Z" fill="#66C0EE"/>
    <path d="M17.9153 7.35932L9.45703 17.4881L10.5348 10.3341L13.631 7.35932L15.4134 6.05615L17.9153 7.35932Z" fill="#3AAAFF"/>
    <path d="M5.28431 1.48779L6.5921 3.77186L5.28431 7.35902H1L5.28431 1.48779Z" fill="#96FFF6"/>
    <path d="M17.9156 7.35902H13.6313L12.4355 3.82806L13.6313 1.48779L17.9156 7.35902Z" fill="#76E2F8"/>
    <path d="M5.28516 7.35902L7.79174 9.02602L9.45911 7.35902L11.0042 5.63561L9.45911 1.48779L6.42438 3.50027L5.28516 7.35902Z" fill="#96FFF6"/>
    <path d="M9.45703 1.48779V7.35902L11.0021 8.74505L13.631 7.35902L12.8284 3.81867L9.45703 1.48779Z" fill="#76E2F8"/>
    <path d="M13.631 1.48779V7.35902L9.45703 1.48779H13.631Z" fill="#66C0EE"/>
    <path d="M9.45911 1.48779L5.28516 7.35902V1.48779H9.45911ZM5.28516 7.35902L9.45911 17.4878L11.1634 10.7671L9.45911 7.35902H5.28516Z" fill="#76E2F8"/>
    <path d="M9.45703 7.35889V17.4877L13.631 7.35889H9.45703Z" fill="#66C0EE"/>
</svg>
