<svg width="106" height="48" viewBox="0 0 106 48" fill="none" xmlns="http://www.w3.org/2000/svg">
    <path d="M72.13 47.1024H11.8304H6.8807V43.8489C6.8807 41.2028 4.73564 39.0578 2.08957 39.0578H0V29.3569H2.08957C4.73564 29.3569 6.8807 27.2118 6.8807 24.5658C6.8807 21.9197 4.73564 19.7746 2.08957 19.7746H0V10.0737H2.08957C4.73564 10.0737 6.8807 7.92869 6.8807 5.28262V0H11.8304H26.9508H39.0764H94.1698H99.1195V3.2535C99.1195 5.89957 101.265 8.04463 103.911 8.04463H106V17.7455H103.911C101.265 17.7455 99.1195 19.8906 99.1195 22.5366C99.1195 25.1827 101.265 27.3278 103.911 27.3278H106V37.0286H103.911C101.265 37.0286 99.1195 39.1737 99.1195 41.8198V47.1024H94.1698H86.3221H72.13Z" fill="#CCA400"/>
    <path d="M42.6512 7.58008H94.4336V39.522H11.9727V7.58008H28.7577H42.6512Z" fill="#FFE477"/>
    <path opacity="0.32" d="M44.8149 47.1276H22.1309L44.4124 0.0253906H67.0965L44.8149 47.1276Z" fill="white"/>
    <path opacity="0.32" d="M62.9397 47.1276H51.5977L73.8792 0.0253906H85.2212L62.9397 47.1276Z" fill="white"/>
    <path d="M20.6625 18.728C20.6466 18.6644 20.6309 18.6007 20.6309 18.5688C20.6309 18.0593 21.3793 17.709 21.9364 17.709C22.2867 17.709 22.5573 17.8204 22.6368 18.1228L25.0729 26.7528L27.4931 18.1228C27.5726 17.8204 27.8434 17.709 28.1937 17.709C28.7508 17.709 29.4993 18.075 29.4993 18.5688C29.4993 18.6166 29.4833 18.6642 29.4676 18.728L26.4104 28.7429C26.2669 29.2208 25.6779 29.4435 25.0727 29.4435C24.4676 29.4435 23.8945 29.2206 23.7351 28.7429L20.6625 18.728Z" fill="#CCA400"/>
    <path d="M30.5977 18.3458C30.5977 17.9003 31.1072 17.709 31.6326 17.709C32.1421 17.709 32.6678 17.9003 32.6678 18.3458V28.6953C32.6678 29.1251 32.1421 29.3481 31.6326 29.3481C31.1072 29.3481 30.5977 29.1251 30.5977 28.6953V18.3458Z" fill="#CCA400"/>
    <path d="M34.5781 18.3458C34.5781 18.0115 34.8804 17.709 35.3582 17.709H38.5587C40.5808 17.709 42.1731 18.6802 42.1731 21.2915V21.3867C42.1731 23.998 40.533 25.0011 38.4314 25.0011H36.6482V28.6951C36.6482 29.1249 36.1226 29.3479 35.6131 29.3479C35.0876 29.3479 34.5781 29.1249 34.5781 28.6951V18.3458ZM36.6478 19.524V23.3773H38.431C39.4659 23.3773 40.1028 22.7883 40.1028 21.5463V21.355C40.1028 20.113 39.4659 19.524 38.431 19.524H36.6478Z" fill="#CCA400"/>
    <path d="M44.5976 24.667H48.7374C49.0717 24.667 49.4061 25.049 49.4061 25.5268C49.4061 26.0363 49.0717 26.3707 48.7374 26.3707H44.5976C44.2158 26.3707 43.9609 26.0363 43.9609 25.5268C43.9609 25.049 44.2156 24.667 44.5976 24.667Z" fill="#CCA400"/>
    <path d="M53.0859 18.3458C53.0859 18.0115 53.3882 17.709 53.866 17.709H57.0665C59.0886 17.709 60.6809 18.6802 60.6809 21.2915V21.3867C60.6809 23.998 59.0408 25.0011 56.9392 25.0011H55.156V28.6951C55.156 29.1249 54.6304 29.3479 54.1209 29.3479C53.5954 29.3479 53.0859 29.1249 53.0859 28.6951V18.3458ZM55.1558 19.524V23.3773H56.939C57.974 23.3773 58.6108 22.7883 58.6108 21.5463V21.355C58.6108 20.113 57.974 19.524 56.939 19.524H55.1558Z" fill="#CCA400"/>
    <path d="M60.5234 28.488C60.5234 28.4564 60.5392 28.3928 60.5551 28.3288L63.6281 18.3139C63.7716 17.836 64.3606 17.6133 64.9498 17.6133C65.5549 17.6133 66.1439 17.8363 66.2874 18.3139L69.3606 28.3288C69.3763 28.3926 69.3923 28.4402 69.3923 28.488C69.3923 28.9818 68.6436 29.3478 68.0867 29.3478C67.7364 29.3478 67.4656 29.2365 67.3861 28.934L66.781 26.8165H63.1347L62.5296 28.934C62.4501 29.2365 62.1795 29.3478 61.8292 29.3478C61.2719 29.3478 60.5234 28.9975 60.5234 28.488ZM66.335 25.1923L64.9496 20.3041L63.5643 25.1923H66.335Z" fill="#CCA400"/>
    <path d="M75.3142 26.2431C75.3142 23.8548 70.203 24.587 70.203 20.8135C70.203 18.4411 72.241 17.6289 74.072 17.6289C75.0113 17.6289 77.0971 17.8519 77.0971 18.9026C77.0971 19.2686 76.8423 20.0013 76.269 20.0013C75.7754 20.0013 75.4094 19.3961 74.0718 19.3961C72.9254 19.3961 72.2727 19.858 72.2727 20.6222C72.2727 22.5966 77.3836 21.9118 77.3836 26.0358C77.3836 28.3128 75.7916 29.491 73.5941 29.491C71.5085 29.491 69.916 28.4399 69.916 27.5165C69.916 27.071 70.3299 26.4019 70.8236 26.4019C71.4762 26.4019 71.9062 27.6281 73.5304 27.6281C74.486 27.6285 75.3142 27.1987 75.3142 26.2431Z" fill="#CCA400"/>
    <path d="M83.6247 26.2431C83.6247 23.8548 78.5135 24.587 78.5135 20.8135C78.5135 18.4411 80.5515 17.6289 82.3825 17.6289C83.3218 17.6289 85.4077 17.8519 85.4077 18.9026C85.4077 19.2686 85.1528 20.0013 84.5795 20.0013C84.086 20.0013 83.7199 19.3961 82.3823 19.3961C81.236 19.3961 80.5832 19.858 80.5832 20.6222C80.5832 22.5966 85.6942 21.9118 85.6942 26.0358C85.6942 28.3128 84.1021 29.491 81.9047 29.491C79.819 29.491 78.2266 28.4399 78.2266 27.5165C78.2266 27.071 78.6404 26.4019 79.1342 26.4019C79.7868 26.4019 80.2168 27.6281 81.8409 27.6281C82.7966 27.6285 83.6247 27.1987 83.6247 26.2431Z" fill="#CCA400"/>
</svg>

